<svg width="129" height="214" viewBox="0 0 129 214" fill="none" xmlns="http://www.w3.org/2000/svg">
<path d="M90.5579 213.985C91.7827 213.985 92.9553 213.733 93.8616 213.275L96.3462 212.017C97.4528 211.456 98.0873 210.629 98.0873 209.747C98.0873 208.866 97.4528 208.039 96.3462 207.48C96.3462 207.48 64.5378 191.447 64.5329 191.445C67.4554 188.602 68.7532 185.402 68.2963 182.127C67.7146 177.952 64.2301 174.051 58.4843 171.143C52.2641 167.994 44.0141 166.26 35.2538 166.26C26.4946 166.26 18.2435 167.994 12.0234 171.143C5.63818 174.374 2.12207 178.722 2.12207 183.385C2.12207 188.047 5.63818 192.395 12.0234 195.627C18.243 198.775 26.4908 200.51 35.2473 200.51C35.2484 200.51 35.25 200.51 35.25 200.51C43.6879 200.51 51.6645 198.897 57.7992 195.962L86.8522 213.097C87.8549 213.672 89.1674 213.985 90.5579 213.985Z" fill="#E0E0E0"/>
<path d="M21.278 47.0352V156.275C20.6626 156.275 20.0471 156.141 19.4862 155.878C19.4698 155.874 19.4589 155.864 19.4426 155.859C19.4263 155.85 19.4045 155.84 19.3881 155.831L8.01634 150.072L8.01089 150.067L8 40.3164L19.4698 46.1184L21.2725 47.0305V47.0352H21.278Z" fill="#E0E0E0"/>
<path d="M87.6438 0L8.00146 40.3163L21.2751 47.0352L100.918 6.71835L87.6438 0Z" fill="#EBEBEB"/>
<path d="M101.088 116.402L27.9119 153.429L23.1628 155.831C22.5801 156.127 21.9319 156.276 21.2784 156.276V152.307L21.2729 47.036H21.2784L22.7925 46.2672L23.1138 46.1001C23.1192 46.1001 23.1247 46.1001 23.1301 46.0953C23.141 46.0905 23.1519 46.0857 23.1628 46.081L27.9119 43.6742L100.919 6.71826L101.088 116.402Z" fill="#FAFAFA"/>
<path d="M21.2729 47.0356H21.2784V47.0351L61.0257 26.7659L100.82 6.56691L101.117 6.41602L101.118 6.71734L101.275 61.5591L101.285 116.401V116.501L101.186 116.551L62.1972 136.225L23.1628 155.831L62.054 136.008L100.989 116.251L100.891 116.401L100.732 61.5596L100.721 6.71781L101.018 6.86823L61.1695 26.9841L21.2784 47.0356H21.2729Z" fill="#E0E0E0"/>
<path opacity="0.1" d="M16.6364 98.8121L17.8133 45.2835L51.9161 26.626L16.2126 44.4727L16.6364 98.8121Z" fill="black"/>
<path opacity="0.1" d="M13.006 112.584L13.1051 42.899L80.0217 9.41943L11.5415 42.1072L13.006 112.584Z" fill="black"/>
<path opacity="0.1" d="M93.3894 8.09897C93.5403 8.35827 93.6154 8.50965 93.6154 8.50965L71.8201 19.543L89.1179 5.59863C91.3117 5.97875 92.6667 6.85835 93.3894 8.09897Z" fill="black"/>
<path d="M71.8201 19.5427L93.6155 8.50936L93.7489 5.45557L71.8201 19.5427Z" fill="#FAFAFA"/>
<path d="M89.8378 50.0281L39.7186 75.3997C39.0863 75.7201 38.5732 75.3801 38.5732 74.6404C38.5732 73.9007 39.0863 73.0421 39.7186 72.7217L89.8378 47.3501C90.4701 47.0297 90.9831 47.3697 90.9831 48.1094C90.9831 48.8491 90.4706 49.7077 89.8378 50.0281Z" fill="#E0E0E0"/>
<path d="M81.0047 61.179L48.5526 77.6069C47.9203 77.9273 47.4072 77.5873 47.4072 76.8477C47.4072 76.1084 47.9197 75.2494 48.5526 74.9289L81.0047 58.501C81.637 58.1806 82.15 58.5206 82.15 59.2603C82.15 60 81.637 60.859 81.0047 61.179Z" fill="#E0E0E0"/>
<path d="M89.8378 92.7127L39.7186 118.084C39.0863 118.405 38.5732 118.065 38.5732 117.325C38.5732 116.585 39.0863 115.727 39.7186 115.406L89.8378 90.0347C90.4701 89.7143 90.9831 90.0543 90.9831 90.7939C90.9831 91.5336 90.4706 92.3927 89.8378 92.7127Z" fill="#E0E0E0"/>
<path d="M81.0047 103.864L48.5526 120.291C47.9203 120.612 47.4072 120.272 47.4072 119.532C47.4072 118.793 47.9197 117.933 48.5526 117.613L81.0047 101.186C81.637 100.865 82.15 101.205 82.15 101.945C82.15 102.684 81.637 103.543 81.0047 103.864Z" fill="#E0E0E0"/>
<path d="M81.0047 47.6756L48.5526 64.1035C47.9203 64.4239 47.4072 64.0839 47.4072 63.3442C47.4072 62.6045 47.9197 61.7459 48.5526 61.4255L81.0047 44.9976C81.637 44.6771 82.15 45.0171 82.15 45.7568C82.15 46.4965 81.637 47.3556 81.0047 47.6756Z" fill="#E0E0E0"/>
<path d="M21.278 152.307V156.275C20.6626 156.275 20.0471 156.141 19.4862 155.878C19.4698 155.874 19.4589 155.864 19.4426 155.859C19.4263 155.85 19.4045 155.84 19.3881 155.831L8.01634 150.072L8.01089 150.067L8 40.3164L19.3827 46.0802C19.4099 46.0945 19.4371 46.1088 19.4698 46.1184C20.0417 46.3954 20.6462 46.5195 21.2725 46.5243V47.0352L21.278 152.307Z" fill="#37474F"/>
<path d="M27.9119 43.6743V153.43L23.1628 155.832C22.5801 156.128 21.9319 156.276 21.2784 156.276V152.307L21.2729 47.0361V46.5252C21.9156 46.5252 22.531 46.3915 23.1138 46.1002C23.1192 46.1002 23.1247 46.1002 23.1301 46.0954C23.141 46.0906 23.1519 46.0858 23.1628 46.0811L27.9119 43.6743Z" fill="#455A64"/>
<path d="M4.39722 175.125V182.407C4.39722 186.36 7.37632 190.313 13.334 193.329C25.2499 199.361 44.5694 199.361 56.4852 193.329C62.4434 190.313 65.422 186.36 65.4226 182.407V175.125C65.4226 171.172 62.4435 167.219 56.4858 164.203C44.5699 158.171 25.2504 158.171 13.3345 164.203C7.37578 167.219 4.39722 171.172 4.39722 175.125ZM62.4712 175.125C62.4712 178.288 59.8211 181.37 55.0098 183.806C49.6883 186.5 42.5494 187.984 34.9093 187.984C27.2688 187.984 20.1304 186.5 14.8094 183.806C9.99815 181.37 7.348 178.288 7.348 175.125C7.348 171.963 9.99761 168.879 14.8094 166.444C20.1309 163.75 27.2693 162.266 34.9093 162.266C42.5499 162.266 49.6883 163.75 55.0098 166.444C59.8216 168.879 62.4712 171.963 62.4712 175.125Z" fill="#6863C7"/>
<path opacity="0.3" d="M56.4871 164.203C44.5712 158.171 25.2517 158.171 13.3358 164.203C1.41996 170.235 1.41996 180.015 13.3358 186.047C25.2522 192.079 44.5712 192.079 56.4871 186.047C68.4024 180.015 68.4024 170.235 56.4871 164.203ZM55.0111 183.806C49.6901 186.5 42.5512 187.984 34.9106 187.984C27.2706 187.984 20.1322 186.5 14.8107 183.806C9.99945 181.37 7.3493 178.288 7.3493 175.125C7.3493 171.963 9.9989 168.879 14.8107 166.444C20.1322 163.75 27.2706 162.266 34.9106 162.266C42.5512 162.266 49.6896 163.75 55.0111 166.444C59.8229 168.88 62.4725 171.963 62.4725 175.125C62.4725 178.288 59.8229 181.37 55.0111 183.806Z" fill="white"/>
<path d="M62.4755 175.124C62.4755 176.366 62.0681 177.587 61.2833 178.767C60.0737 176.93 57.9431 175.207 55.0097 173.727C49.6926 171.031 42.5514 169.546 34.9087 169.546C27.2719 169.546 20.1308 171.031 14.8136 173.727C11.8803 175.207 9.75024 176.93 8.53409 178.767C7.75473 177.587 7.3479 176.366 7.3479 175.124C7.3479 171.962 9.99805 168.878 14.8136 166.441C20.1308 163.75 27.2719 162.265 34.9087 162.265C42.5514 162.265 49.6926 163.75 55.0097 166.441C59.8253 168.878 62.4755 171.962 62.4755 175.124Z" fill="#6863C7"/>
<path opacity="0.1" d="M62.4755 175.124C62.4755 176.366 62.0681 177.587 61.2833 178.767C60.0737 176.93 57.9431 175.207 55.0097 173.727C49.6926 171.031 42.5514 169.546 34.9087 169.546C27.2719 169.546 20.1308 171.031 14.8136 173.727C11.8803 175.207 9.75024 176.93 8.53409 178.767C7.75473 177.587 7.3479 176.366 7.3479 175.124C7.3479 171.962 9.99805 168.878 14.8136 166.441C20.1308 163.75 27.2719 162.265 34.9087 162.265C42.5514 162.265 49.6926 163.75 55.0097 166.441C59.8253 168.878 62.4755 171.962 62.4755 175.124Z" fill="black"/>
<path opacity="0.6" d="M55.0114 169.74C49.6904 167.047 42.5515 165.563 34.9109 165.563C27.2704 165.563 20.132 167.047 14.811 169.74C10.8406 171.75 8.34734 174.201 7.59521 176.773C8.34734 179.346 10.8412 181.797 14.811 183.807C20.1325 186.5 27.2715 187.984 34.9109 187.984C42.5515 187.984 49.6899 186.5 55.0114 183.807C58.9818 181.797 61.4751 179.346 62.2277 176.773C61.4751 174.201 58.9823 171.75 55.0114 169.74Z" fill="white"/>
<path opacity="0.1" d="M42.1003 190.141V197.417C47.3707 196.775 52.3693 195.414 56.4828 193.329C62.4432 190.312 65.4234 186.359 65.4234 182.405V175.125C65.4234 174.328 65.2998 173.531 65.058 172.739H65.052C66.4979 177.442 63.6414 182.421 56.4828 186.048C52.3693 188.133 47.3707 189.494 42.1003 190.141Z" fill="black"/>
<path d="M55.5784 190.682C55.5729 189.487 56.5233 188.03 57.7013 187.428C58.2874 187.128 58.8184 187.098 59.2061 187.289L59.2067 187.288L59.2121 187.29L59.2132 187.291L69.4843 192.43C69.4871 192.432 69.4887 192.433 69.4914 192.434L69.4936 192.435C69.8781 192.631 70.1177 193.048 70.1205 193.643C70.1259 194.838 69.1755 196.296 67.9975 196.897C67.4082 197.198 66.8739 197.228 66.4862 197.034L56.2162 191.895L56.2172 191.894C55.8251 191.702 55.5811 191.283 55.5784 190.682Z" fill="#37474F"/>
<path d="M56.2162 191.895C55.8251 191.702 55.5811 191.283 55.5784 190.682C55.5762 190.232 55.7102 189.744 55.9411 189.279L69.1864 195.921C68.8471 196.327 68.4381 196.672 67.997 196.898C67.4077 197.199 66.8734 197.229 66.4856 197.035L56.2156 191.896L56.2162 191.895Z" fill="#263238"/>
<path d="M66.2632 196.871C66.2561 195.315 67.493 193.419 69.0261 192.635C69.7777 192.251 70.4585 192.21 70.9606 192.447L70.9628 192.444L70.9917 192.457L70.9933 192.458L96.9774 204.143L91.8955 212.018L67.09 198.449C66.5829 198.197 66.267 197.651 66.2632 196.871Z" fill="#6863C7"/>
<path opacity="0.1" d="M91.8955 212.019L67.09 198.45C66.5829 198.197 66.267 197.652 66.2632 196.872C66.2594 196.037 66.621 195.108 67.1874 194.301L94.5157 207.959L91.8955 212.019Z" fill="black"/>
<path d="M94.4646 211.783C96.4754 210.756 98.0973 208.269 98.088 206.228C98.0782 204.187 96.4411 203.364 94.4303 204.392C92.4196 205.42 90.7977 207.906 90.8069 209.947C90.8162 211.987 92.4539 212.809 94.4646 211.783Z" fill="#6863C7"/>
<g opacity="0.2">
<path d="M94.4646 211.783C96.4754 210.756 98.0973 208.269 98.088 206.228C98.0782 204.187 96.4411 203.364 94.4303 204.392C92.4196 205.42 90.7977 207.906 90.8069 209.947C90.8162 211.987 92.4539 212.809 94.4646 211.783Z" fill="black"/>
</g>
<path opacity="0.25" d="M61.3857 135.383L95.9956 152.903L129 136.201L94.3901 118.681L61.3857 135.383Z" fill="black"/>
<path d="M61.3857 133.73L95.9956 151.25L129 134.548L94.3901 117.028L61.3857 133.73Z" fill="#6863C7"/>
<path opacity="0.7" d="M61.3857 133.73L95.9956 151.25L129 134.548L94.3901 117.028L61.3857 133.73Z" fill="white"/>
<path opacity="0.2" d="M94.3901 117.028L101.593 120.679L68.589 137.381L61.3857 133.73L94.3901 117.028Z" fill="#6863C7"/>
<path d="M78.7548 137.679C78.6361 137.638 78.5332 137.614 78.4035 137.592C78.2717 137.569 78.1459 137.573 78.0185 137.585C77.9564 137.592 77.8714 137.604 77.8028 137.625C77.7761 137.613 77.7533 137.598 77.7239 137.591C77.6612 137.574 77.5997 137.567 77.5332 137.564C77.4984 137.561 77.4646 137.562 77.4319 137.566C77.3829 137.568 77.3377 137.575 77.2963 137.586C77.1825 137.595 77.0409 137.707 76.9859 137.76C76.932 137.811 76.8868 137.868 76.8508 137.924C76.78 138.036 76.7517 138.158 76.756 138.281C76.7599 138.389 76.7931 138.511 76.9053 138.613C77.0305 138.727 77.2195 138.817 77.4602 138.862C77.8747 138.94 78.3404 138.881 78.6475 138.764C78.9563 138.645 79.2145 138.466 79.2586 138.257C79.3033 138.044 79.1551 137.816 78.7548 137.679ZM78.2581 138.014C78.2587 138.015 78.2581 138.015 78.2587 138.015C78.2647 138.028 78.3022 138.054 78.3137 138.068C78.3202 138.075 78.3262 138.083 78.3317 138.091C78.3327 138.092 78.3322 138.091 78.3333 138.093C78.3317 138.09 78.33 138.086 78.3317 138.086C78.3317 138.086 78.3338 138.093 78.3344 138.095C78.3513 138.119 78.342 138.108 78.3349 138.096C78.3393 138.111 78.3513 138.15 78.3518 138.154C78.3534 138.163 78.3534 138.172 78.3545 138.181C78.3545 138.182 78.3545 138.181 78.3545 138.182C78.3502 138.2 78.3464 138.218 78.3393 138.235C78.3355 138.244 78.3317 138.252 78.3273 138.261C78.3235 138.268 78.3197 138.275 78.3153 138.282C78.311 138.288 78.3061 138.293 78.3012 138.299C78.2941 138.307 78.2864 138.315 78.2788 138.322C78.2614 138.339 78.2418 138.357 78.2211 138.373C78.22 138.373 78.2189 138.374 78.2178 138.375C78.2227 138.372 78.2244 138.371 78.232 138.367C78.2206 138.373 78.2113 138.38 78.2004 138.387C78.1715 138.405 78.141 138.422 78.1084 138.439C78.1024 138.442 78.0964 138.445 78.0893 138.448C78.0626 138.457 78.0354 138.467 78.0065 138.475C77.9945 138.479 77.982 138.482 77.97 138.485C77.9515 138.489 77.9368 138.492 77.9177 138.494C77.9265 138.494 77.9237 138.493 77.9346 138.493C77.9292 138.493 77.9237 138.494 77.9177 138.494C77.9052 138.495 77.8905 138.497 77.8813 138.498C77.8802 138.498 77.8807 138.498 77.8802 138.498C77.8758 138.498 77.8802 138.498 77.8742 138.498C77.8704 138.498 77.8665 138.497 77.8627 138.497C77.8633 138.497 77.866 138.497 77.8665 138.497C77.8649 138.497 77.8627 138.497 77.8605 138.497C77.8556 138.496 77.8502 138.496 77.8453 138.496C77.8399 138.495 77.8355 138.494 77.8301 138.493C77.8213 138.49 77.8143 138.487 77.8055 138.485C77.7996 138.481 77.7887 138.475 77.7772 138.469C77.775 138.466 77.7582 138.454 77.7544 138.45C77.7402 138.436 77.7298 138.421 77.7179 138.407C77.714 138.402 77.7168 138.406 77.7151 138.404C77.7086 138.392 77.7032 138.381 77.6983 138.369C77.6874 138.343 77.6797 138.316 77.6748 138.29C77.6656 138.244 77.6481 138.184 77.6694 138.142C77.6705 138.139 77.6716 138.137 77.6716 138.135C77.6748 138.122 77.6786 138.108 77.6835 138.094C77.6912 138.071 77.7004 138.049 77.7113 138.027C77.7456 137.958 77.8039 137.895 77.8551 137.83C77.8562 137.831 77.8578 137.832 77.8595 137.832C77.9166 137.865 77.9825 137.887 78.0577 137.908C78.061 137.909 78.0648 137.91 78.0686 137.911C78.0784 137.914 78.0882 137.918 78.098 137.922C78.1122 137.927 78.1258 137.932 78.1389 137.938C78.1427 137.94 78.1465 137.942 78.1503 137.943C78.1677 137.951 78.2222 137.987 78.2276 137.991C78.2374 137.999 78.2478 138.007 78.2581 138.014Z" fill="#37474F"/>
<path d="M78.2178 138.375C78.179 138.399 78.2022 138.387 78.2178 138.375V138.375Z" fill="#37474F"/>
<path d="M77.8666 138.498C77.8833 138.498 77.9012 138.496 77.919 138.495C77.8917 138.496 77.8733 138.497 77.8666 138.498Z" fill="#37474F"/>
<path d="M78.3343 138.096L78.3333 138.094L78.3348 138.098L78.3343 138.096Z" fill="#37474F"/>
<path d="M86.0761 141.385C85.9574 141.344 85.8544 141.32 85.7248 141.298C85.593 141.275 85.4672 141.279 85.3398 141.291C85.2771 141.298 85.1927 141.31 85.1241 141.331C85.0974 141.319 85.0745 141.304 85.0451 141.297C84.9825 141.28 84.921 141.273 84.8545 141.27C84.8197 141.267 84.7859 141.268 84.7532 141.272C84.7042 141.274 84.659 141.281 84.6176 141.292C84.5038 141.301 84.3622 141.413 84.3072 141.466C84.2532 141.517 84.208 141.574 84.1721 141.63C84.1018 141.742 84.073 141.864 84.0773 141.987C84.0811 142.095 84.1144 142.217 84.2266 142.319C84.3518 142.433 84.5408 142.523 84.7815 142.568C85.196 142.646 85.6616 142.587 85.9688 142.47C86.2776 142.351 86.5358 142.172 86.5799 141.963C86.6251 141.75 86.477 141.522 86.0761 141.385ZM85.5794 141.721C85.58 141.721 85.5794 141.721 85.58 141.721C85.5859 141.735 85.6235 141.761 85.635 141.774C85.6415 141.782 85.6475 141.789 85.6529 141.797C85.654 141.799 85.6535 141.798 85.6546 141.799C85.6529 141.796 85.6513 141.793 85.6529 141.792C85.6529 141.792 85.6551 141.799 85.6557 141.801C85.6725 141.825 85.6633 141.814 85.6562 141.803C85.6606 141.818 85.6725 141.857 85.6731 141.861C85.6747 141.87 85.6747 141.879 85.6758 141.887C85.6758 141.888 85.6758 141.888 85.6758 141.888C85.6714 141.906 85.6676 141.924 85.6606 141.942C85.6567 141.95 85.6529 141.959 85.6486 141.968C85.6448 141.975 85.6409 141.981 85.6366 141.989C85.6322 141.994 85.6273 142 85.6224 142.005C85.6153 142.013 85.6077 142.021 85.6001 142.029C85.5827 142.046 85.5631 142.063 85.5424 142.079C85.5413 142.08 85.5402 142.081 85.5391 142.082C85.544 142.079 85.5456 142.078 85.5533 142.074C85.5418 142.08 85.5326 142.087 85.5217 142.094C85.4928 142.112 85.4623 142.129 85.4291 142.146C85.4231 142.149 85.4171 142.152 85.41 142.155C85.3833 142.164 85.3561 142.174 85.3272 142.182C85.3153 142.186 85.3027 142.189 85.2908 142.192C85.2722 142.196 85.2575 142.199 85.2385 142.201C85.2472 142.201 85.2445 142.2 85.2554 142.2C85.2499 142.2 85.2445 142.201 85.2385 142.201C85.2259 142.202 85.2112 142.204 85.202 142.205C85.2009 142.205 85.2014 142.205 85.2009 142.205C85.1965 142.205 85.2009 142.205 85.1949 142.205C85.1911 142.205 85.1873 142.204 85.1835 142.204C85.184 142.204 85.1867 142.204 85.1873 142.204C85.1856 142.204 85.1835 142.204 85.1818 142.204C85.1769 142.203 85.1715 142.203 85.1666 142.203C85.1611 142.202 85.1568 142.201 85.1513 142.201C85.1426 142.198 85.1355 142.195 85.1268 142.192C85.1208 142.188 85.1099 142.182 85.0985 142.176C85.0963 142.173 85.0794 142.161 85.0756 142.157C85.0615 142.143 85.0511 142.128 85.0391 142.114C85.0353 142.109 85.0381 142.113 85.0364 142.111C85.0299 142.099 85.0244 142.088 85.0195 142.076C85.0086 142.05 85.001 142.023 84.9961 141.997C84.9869 141.951 84.9694 141.891 84.9907 141.849C84.9918 141.847 84.9928 141.844 84.9928 141.842C84.9961 141.829 84.9999 141.815 85.0048 141.801C85.0125 141.778 85.0217 141.756 85.0326 141.734C85.0669 141.665 85.1252 141.602 85.1764 141.537C85.1775 141.538 85.1791 141.539 85.1807 141.539C85.2379 141.572 85.3038 141.594 85.379 141.615C85.3828 141.616 85.3861 141.617 85.3899 141.618C85.3997 141.621 85.4095 141.625 85.4193 141.629C85.4334 141.634 85.4471 141.639 85.4601 141.645C85.4639 141.647 85.4678 141.649 85.4716 141.65C85.489 141.658 85.5435 141.694 85.5484 141.698C85.5593 141.705 85.5696 141.713 85.5794 141.721Z" fill="#37474F"/>
<path d="M92.7324 144.755C92.6136 144.714 92.5107 144.69 92.3811 144.668C92.2493 144.645 92.1235 144.649 91.996 144.661C91.9339 144.667 91.849 144.68 91.7804 144.701C91.7537 144.689 91.7308 144.674 91.7014 144.666C91.6388 144.65 91.5772 144.642 91.5108 144.64C91.4759 144.637 91.4421 144.638 91.4095 144.642C91.3605 144.644 91.3152 144.65 91.2739 144.662C91.16 144.671 91.0184 144.783 90.9634 144.836C90.9095 144.887 90.8643 144.944 90.8283 145C90.7575 145.112 90.7292 145.234 90.7336 145.357C90.7374 145.465 90.7706 145.587 90.8828 145.689C91.0081 145.803 91.1971 145.893 91.4378 145.938C91.8522 146.016 92.3179 145.957 92.6251 145.84C92.9339 145.722 93.192 145.543 93.2361 145.333C93.2808 145.119 93.1327 144.892 92.7324 144.755ZM92.2357 145.09C92.2362 145.09 92.2357 145.09 92.2362 145.09C92.2422 145.104 92.2798 145.13 92.2912 145.143C92.2978 145.151 92.3037 145.159 92.3092 145.166C92.3103 145.168 92.3097 145.167 92.3108 145.169C92.3092 145.165 92.3076 145.162 92.3092 145.161C92.3092 145.161 92.3114 145.169 92.3119 145.171C92.3288 145.194 92.3195 145.183 92.3125 145.172C92.3168 145.187 92.3288 145.226 92.3293 145.23C92.331 145.239 92.331 145.248 92.3321 145.256C92.3321 145.257 92.3321 145.257 92.3321 145.257C92.3277 145.276 92.3239 145.293 92.3168 145.311C92.313 145.32 92.3092 145.328 92.3048 145.337C92.301 145.344 92.2972 145.351 92.2929 145.358C92.2885 145.363 92.2836 145.369 92.2787 145.374C92.2716 145.383 92.264 145.39 92.2564 145.398C92.2389 145.415 92.2193 145.432 92.1986 145.448C92.1975 145.449 92.1965 145.45 92.1954 145.451C92.2003 145.448 92.2019 145.447 92.2095 145.443C92.1981 145.449 92.1888 145.457 92.1779 145.463C92.1491 145.481 92.1186 145.499 92.0859 145.515C92.0799 145.518 92.0734 145.521 92.0668 145.524C92.0401 145.533 92.0129 145.543 91.9841 145.552C91.9721 145.555 91.9595 145.558 91.9476 145.562C91.929 145.565 91.9143 145.568 91.8953 145.57C91.904 145.57 91.9013 145.569 91.9122 145.569C91.9067 145.569 91.9013 145.57 91.8953 145.57C91.8828 145.572 91.868 145.573 91.8588 145.575C91.8577 145.575 91.8582 145.575 91.8577 145.575C91.8533 145.575 91.8577 145.575 91.8517 145.574C91.8479 145.574 91.8441 145.574 91.8403 145.573C91.8408 145.573 91.8435 145.573 91.8441 145.573C91.8424 145.573 91.8403 145.573 91.8381 145.573C91.8332 145.573 91.8277 145.573 91.8228 145.572C91.8174 145.571 91.813 145.57 91.8076 145.569C91.7989 145.566 91.7918 145.564 91.7831 145.561C91.7771 145.557 91.7662 145.551 91.7548 145.545C91.7526 145.543 91.7357 145.531 91.7319 145.526C91.7177 145.512 91.7074 145.497 91.6954 145.483C91.6916 145.479 91.6943 145.482 91.6927 145.48C91.6861 145.469 91.6807 145.457 91.6758 145.446C91.6649 145.419 91.6573 145.393 91.6524 145.366C91.6431 145.32 91.6257 145.26 91.6469 145.218C91.648 145.216 91.6491 145.213 91.6491 145.212C91.6524 145.198 91.6562 145.184 91.6611 145.171C91.6687 145.148 91.678 145.125 91.6889 145.103C91.7232 145.034 91.7815 144.971 91.8326 144.906C91.8337 144.907 91.8354 144.908 91.8365 144.908C91.8936 144.941 91.9595 144.963 92.0347 144.984C92.0385 144.985 92.0418 144.986 92.0456 144.987C92.0554 144.99 92.0652 144.994 92.075 144.998C92.0892 145.003 92.1028 145.009 92.1159 145.014C92.1197 145.016 92.1235 145.018 92.1273 145.02C92.1447 145.027 92.1992 145.064 92.2041 145.067C92.215 145.075 92.2253 145.082 92.2357 145.09Z" fill="#37474F"/>
<path d="M85.5395 142.082C85.5007 142.105 85.5233 142.094 85.5395 142.082V142.082Z" fill="#37474F"/>
<path d="M85.1882 142.204C85.2049 142.204 85.2228 142.202 85.2406 142.201C85.2133 142.202 85.1949 142.203 85.1882 142.204Z" fill="#37474F"/>
<path d="M85.6557 141.801L85.6548 141.799L85.6561 141.803L85.6557 141.801Z" fill="#37474F"/>
<path d="M91.5959 131.876C91.402 131.95 91.1929 131.947 90.9511 131.897C90.7191 131.848 90.2959 131.917 90.45 132.073C90.5987 132.224 90.5731 132.437 90.2447 132.482C89.9887 132.518 89.772 132.417 89.6581 132.297C89.6271 132.238 89.595 132.18 89.5536 132.122C89.4403 131.964 88.8134 131.982 88.8461 132.15C88.8608 132.223 88.9071 132.292 88.967 132.357C89.1141 132.634 89.1266 132.913 88.9801 133.174C88.9076 133.303 88.0967 134.149 87.5651 133.809C87.4066 133.708 86.9116 133.69 86.9296 133.845C86.9355 133.898 86.9508 134.409 86.6028 134.263C86.4301 134.19 85.9792 134.194 86.0157 134.337C86.0336 134.408 86.0549 134.479 86.0549 134.55C86.0614 134.585 86.0565 134.62 86.0402 134.654C86.0533 134.751 85.9334 134.782 85.6813 134.75C85.5544 134.57 84.9324 134.636 84.9471 134.801C84.9673 135.023 84.9389 135.239 84.9384 135.458C84.9057 135.441 84.8709 135.425 84.8398 135.406C84.6193 135.281 84.4417 135.147 84.274 135.005C84.0801 134.841 83.4505 134.889 83.5186 135.082C83.6803 135.543 83.8628 136.024 83.7282 136.473C83.6618 136.695 83.518 136.981 83.0649 137.059C82.4135 137.171 82.0671 136.717 81.8852 136.472C81.5873 136.072 81.3798 135.66 81.2573 135.248C81.1467 134.878 80.9441 134.338 81.2823 133.998C81.681 134.324 81.974 134.679 82.1641 135.036C82.1995 135.103 82.5415 135.18 82.5312 135.085C82.4789 134.592 82.1586 134.137 81.6184 133.691C81.4866 133.583 81.2012 133.548 81.0193 133.612C80.0836 133.943 80.2971 134.732 80.4605 135.291C80.5563 135.619 80.7132 135.949 80.9223 136.272C81.1168 136.571 81.3292 136.927 81.7965 137.164C82.5938 137.569 83.7702 137.403 84.2211 137.015C84.6307 136.662 84.6372 136.206 84.5316 135.755C84.7903 135.855 85.0724 135.905 85.3594 135.841C85.8098 135.741 85.8229 135.404 85.7733 135.109C85.9247 135.116 86.0761 135.114 86.2101 135.091C86.6725 135.01 86.7694 134.786 86.7526 134.553C86.9056 134.556 87.0575 134.543 87.1948 134.507C87.49 134.428 87.5869 134.28 87.6136 134.119C88.222 134.187 88.8799 133.961 89.2083 133.74C89.6255 133.458 89.8155 133.109 89.7921 132.745C89.9931 132.783 90.2066 132.802 90.4173 132.789C90.9876 132.751 91.3192 132.504 91.2822 132.228C91.6242 132.234 91.9434 132.185 92.2217 132.079C92.579 131.94 91.8769 131.767 91.5959 131.876Z" fill="#37474F"/>
<path d="M103.255 125.721C103.378 126.358 102.607 126.955 101.193 126.746C101.041 126.723 100.794 126.753 100.767 126.838C100.681 127.111 100.818 127.463 100.531 127.696C100.411 127.793 100.239 127.827 100.069 127.807C100.075 127.549 99.9941 127.283 99.8759 127.021C99.8411 126.945 99.6984 126.895 99.5546 126.881C98.3319 126.767 98.6652 127.509 99.2992 127.88C99.2583 128.187 99.0574 128.465 98.534 128.633C98.0754 128.78 97.3505 128.807 97.0935 129.046C96.9442 129.03 96.7912 129.027 96.6539 129.054C96.136 129.153 96.2264 129.441 96.1785 129.686C96.0238 129.681 95.868 129.693 95.7357 129.73C95.3768 129.829 95.3806 129.989 95.361 130.153C95.1143 130.064 94.8066 130.015 94.4967 130.018C93.677 130.027 93.3083 130.446 93.506 130.833C93.5615 130.942 94.0169 131.014 94.0027 130.877C93.9836 130.688 94.0049 130.47 94.275 130.341C94.5506 130.21 95.086 130.262 95.1796 130.5C95.2319 130.634 95.6801 130.71 95.819 130.599C95.9236 130.514 95.9791 130.437 96.0031 130.333C96.0145 130.282 96.0113 130.228 96.0178 130.176C96.0129 130.215 96.118 129.923 96.1621 129.955C96.3141 130.068 96.716 130.055 96.7983 129.948C96.8625 129.864 96.8903 129.785 96.899 129.692C96.9028 129.645 96.9028 129.598 96.899 129.549C96.8701 129.461 96.9094 129.388 97.0172 129.332C97.149 129.48 97.7399 129.481 97.716 129.311C97.6718 129.001 98.5487 129.008 98.949 128.903C99.3335 128.801 99.6325 128.628 99.8182 128.431C99.9157 128.327 99.9805 128.218 100.022 128.106C100.403 128.144 100.781 128.08 101.041 127.951C101.501 127.724 101.462 127.37 101.48 127.043C103.012 127.115 104.389 126.585 103.922 125.724C103.844 125.578 103.225 125.565 103.255 125.721Z" fill="#37474F"/>
<path d="M106.107 125.227C105.994 125.284 106.281 125.398 106.377 125.349C106.49 125.292 106.203 125.178 106.107 125.227Z" fill="#37474F"/>
<path d="M101.694 134.017C101.337 134.307 100.958 134.589 100.547 134.858C100.347 134.989 100.15 135.128 99.9187 135.246C99.6606 135.377 99.3186 135.367 99.0512 135.474C98.8959 135.536 98.8475 135.631 98.7788 135.722C98.6982 135.829 98.6972 135.873 98.4395 135.897C98.3415 135.906 98.2614 135.891 98.1645 135.91C98.0164 135.939 97.9374 135.988 97.8846 136.064C97.8372 136.133 97.8497 136.68 97.4614 136.478C97.3574 136.423 97.1134 136.383 97.0094 136.438C96.8089 136.545 96.7436 136.662 96.6858 136.811C96.6559 136.888 96.6619 137.005 96.5769 137.068C96.3504 137.238 96.0808 137.126 95.8852 136.973C95.7583 136.874 95.3188 136.843 95.2987 136.975C95.2666 137.187 95.2502 137.401 95.1963 137.611C95.1587 137.758 95.0988 138.157 94.7443 138.192C94.6048 138.206 94.4627 138.184 94.3369 138.146C94.3701 138.108 94.4077 138.07 94.436 138.031C94.6081 137.791 94.7208 137.498 94.4442 137.233C94.2497 137.047 93.8391 136.932 93.5314 137.075C93.0347 137.304 93.1529 137.837 93.637 138.173C93.6022 138.207 93.5679 138.241 93.5374 138.27C93.4442 138.361 93.1496 138.781 92.9481 138.802C92.8277 138.815 92.6055 138.72 92.4231 138.726C92.2978 138.731 92.209 138.756 92.1834 138.818C92.1725 138.844 92.1693 138.871 92.1605 138.898C91.9035 138.78 91.6148 138.691 91.3235 138.759C91.0686 138.819 90.9771 139.001 90.9395 139.187C90.763 139.111 90.5773 139.04 90.3698 138.977C90.164 138.915 89.8769 138.959 89.8579 139.073C89.8339 139.216 89.8355 139.36 89.8257 139.503C89.7506 139.417 89.676 139.332 89.5856 139.249C89.2931 138.979 88.8797 138.648 88.267 138.551C87.6581 138.455 87.3319 138.675 87.1734 138.927C86.9512 139.279 87.071 139.662 87.4474 140.02C87.51 140.079 87.852 140.13 87.7785 140.033C87.583 139.777 87.4947 139.503 87.5694 139.249C87.6042 139.131 87.6663 138.988 87.7943 138.893C88.0813 138.681 88.4827 138.847 88.7234 139.026C89.3993 139.529 89.6525 140.135 89.9074 140.694C89.9733 140.84 90.6007 140.849 90.5746 140.695C90.5 140.253 90.4956 139.817 90.5387 139.384C90.6917 139.457 90.8311 139.537 90.9602 139.627C91.135 139.748 91.5903 139.726 91.605 139.583C91.6165 139.472 91.635 139.362 91.6709 139.254C91.6813 139.223 91.7243 139.158 91.7548 139.1C91.8681 139.169 92.0538 139.241 92.1785 139.3C92.3653 139.389 92.7248 139.365 92.7515 139.243C92.7662 139.175 92.7749 139.107 92.7874 139.039C92.8402 139.054 92.892 139.07 92.9448 139.076C93.1588 139.101 93.338 139.062 93.4676 138.991C93.7024 138.862 93.8451 138.645 94.0068 138.489C94.0417 138.455 94.0755 138.421 94.1103 138.388C94.1838 138.409 94.2546 138.433 94.3358 138.444C95.6565 138.64 95.9435 137.832 95.9419 137.277C96.2627 137.379 96.6052 137.435 96.9217 137.323C97.3029 137.186 97.2261 136.894 97.4015 136.684C97.7397 136.753 98.1155 136.748 98.2979 136.588C98.488 136.421 98.1836 136.181 98.6073 136.086C98.8202 136.038 98.9749 136.092 99.135 135.97C99.2096 135.913 99.2358 135.843 99.287 135.78C99.3992 135.642 99.5811 135.625 99.8452 135.568C100.155 135.502 100.358 135.396 100.572 135.27C101.166 134.918 101.701 134.541 102.193 134.149C102.331 134.037 101.816 133.918 101.694 134.017Z" fill="#37474F"/>
<path d="M112.119 128.91C111.319 129.573 110.058 129.953 108.964 130.473C108.428 130.727 108.084 131.119 107.436 131.298C106.942 131.434 106.765 131.606 106.721 131.885C106.041 131.917 105.714 132.181 105.529 132.5C105.083 132.323 104.737 132.072 104.13 132.219C103.509 132.37 103.16 132.887 103.223 133.237C103.238 133.318 103.594 133.409 103.646 133.316C103.79 133.056 103.891 132.65 104.354 132.488C104.748 132.35 105.253 132.709 105.661 132.81C105.773 132.837 106.022 132.834 106.054 132.765C106.171 132.515 106.334 132.085 107.016 132.118C107.149 132.125 107.337 132.111 107.341 132.028C107.356 131.743 107.5 131.604 107.981 131.482C108.25 131.414 108.415 131.31 108.586 131.188C108.982 130.908 109.419 130.667 109.94 130.445C110.926 130.026 112.148 129.653 112.696 129.032C112.822 128.89 112.253 128.8 112.119 128.91Z" fill="#37474F"/>
<path d="M107.465 138.014C106.825 138.284 106.264 138.609 105.682 138.91C105.23 139.144 104.798 139.384 104.448 139.659C104.088 139.318 103.714 138.98 103.329 138.644C103.208 138.539 102.644 138.522 102.763 138.668C103.029 138.992 103.194 139.321 103.2 139.656C103.203 139.803 103.178 139.949 103.125 140.09C103.099 140.16 103.067 140.23 103.026 140.298C103.017 140.313 102.726 140.684 102.583 140.523C102.498 140.428 102.174 140.402 102.071 140.473C102.016 140.51 101.961 140.547 101.906 140.585C101.73 140.542 101.528 140.531 101.359 140.568C101.167 140.611 101.09 140.697 101.061 140.802C101.045 140.865 101.08 140.941 101.095 141.005C101.107 141.034 101.118 141.063 101.13 141.092C101.254 141.267 101.097 141.339 100.662 141.307C100.554 141.243 100.175 141.199 100.165 141.31C100.148 141.489 100.129 141.807 99.9079 141.97C99.7134 141.877 99.4602 141.665 99.3665 141.601C99.2625 141.531 98.7947 141.447 98.8094 141.588C98.8546 142.025 98.6966 142.433 98.3165 142.797C98.2299 142.88 98.6558 142.987 98.7478 142.913C99.0849 142.64 99.2941 142.346 99.3676 142.023C99.592 142.156 99.8545 142.26 100.147 142.23C100.579 142.186 100.677 141.816 100.708 141.556C100.944 141.601 101.196 141.609 101.41 141.553C101.596 141.504 101.694 141.422 101.721 141.314C101.734 141.265 101.715 141.207 101.702 141.157C101.69 141.113 101.674 141.069 101.654 141.025C101.584 140.928 101.611 140.847 101.738 140.784C101.826 140.88 102.152 140.905 102.255 140.833C102.304 140.798 102.353 140.764 102.402 140.73C102.543 140.772 102.705 140.792 102.865 140.786C103.297 140.769 103.468 140.559 103.581 140.377C103.745 140.111 103.804 139.824 103.764 139.534C103.914 139.673 104.065 139.811 104.208 139.952C104.295 140.038 104.644 140.083 104.731 139.998C105.494 139.253 106.935 138.797 107.954 138.161C108.118 138.06 107.611 137.953 107.465 138.014Z" fill="#37474F"/>
<path d="M96.4646 140.788C96.4107 140.66 95.8634 140.618 95.8574 140.756C95.8574 140.758 95.8579 140.761 95.8579 140.763C95.8432 140.771 95.8187 140.773 95.8138 140.786C95.7218 141.051 95.7436 141.325 95.8024 141.6C95.7604 141.745 95.7054 141.888 95.6237 142.026C95.3928 142.415 95.0203 142.775 94.5105 143.076C94.3548 143.167 93.8074 143.529 93.5144 143.328C93.3924 143.245 93.3597 143.085 93.3325 142.991C93.3015 142.884 93.2933 142.778 93.302 142.673C93.3309 142.319 93.5787 142.011 93.973 141.751C94.242 141.93 94.4207 142.133 94.5176 142.35C94.5318 142.382 94.718 142.463 94.7256 142.404C94.7676 142.096 94.5345 141.794 94.1255 141.532C94.0416 141.479 93.8129 141.436 93.7137 141.481C93.1958 141.715 92.8723 142.038 92.7492 142.399C92.6463 142.7 92.5978 143.304 93.2486 143.525C94.034 143.791 94.7066 143.443 95.1194 143.19C95.5154 142.947 95.8133 142.665 96.0453 142.367C96.1117 142.527 96.1814 142.688 96.2452 142.847C96.4047 143.249 96.5648 143.65 96.7255 144.052C96.8034 144.247 96.8818 144.442 96.9597 144.638C97.0311 144.817 97.0545 145.036 97.2151 145.207C97.2625 145.331 97.8404 145.382 97.8398 145.234C97.8393 145.019 97.6764 144.779 97.5828 144.562C97.5071 144.386 97.4313 144.211 97.3556 144.036C97.1944 143.663 97.0327 143.29 96.8709 142.917C96.7163 142.56 96.5245 142.189 96.396 141.82C96.5409 141.487 96.6073 141.125 96.4646 140.788Z" fill="#37474F"/>
<path d="M116.219 133.741C115.364 134.043 114.635 134.456 113.871 134.813C113.114 135.166 112.327 135.508 111.605 135.879C111.301 136.036 111.019 136.205 110.825 136.404C110.734 136.498 110.687 136.618 110.568 136.702C110.403 136.818 110.162 136.806 109.897 136.822C109.363 136.853 109.056 137.058 109.308 137.341C109.355 137.395 109.63 137.453 109.599 137.363C109.562 137.252 109.607 137.138 109.773 137.071C110.026 136.969 110.21 137.044 110.477 137.034C110.747 137.024 110.93 136.942 111.063 136.834C111.271 136.665 111.369 136.468 111.602 136.304C111.892 136.101 112.262 135.932 112.624 135.763C113.3 135.448 113.975 135.133 114.65 134.818C115.297 134.517 116.043 134.235 116.598 133.889C116.73 133.805 116.352 133.694 116.219 133.741Z" fill="#37474F"/>
<path d="M117.247 133.238C117.092 133.317 117.527 133.444 117.667 133.373C117.823 133.294 117.388 133.167 117.247 133.238Z" fill="#37474F"/>
<path d="M73.5727 122.194L72.8734 122.547L70.3741 121.507L70.3583 121.497C69.6116 121.122 69.7015 120.532 69.7865 119.961C69.8714 119.427 69.9455 118.921 69.3943 118.642C67.822 117.848 64.6076 118.285 62.7858 119.209C60.9592 120.133 60.0959 121.758 61.6634 122.551C62.2194 122.834 63.215 122.793 64.2689 122.756C65.3968 122.709 66.5617 122.667 67.3084 123.044L67.34 123.062L69.3731 124.321L68.701 124.66L66.62 123.374C66.1805 123.164 65.2857 123.197 64.3429 123.234C63.178 123.28 61.854 123.332 60.9913 122.895C60.0649 122.421 59.7043 121.716 59.9903 120.903C60.2495 120.165 61.0229 119.422 62.1138 118.87C63.2047 118.317 64.6713 117.922 66.138 117.792C67.7425 117.648 69.1351 117.829 70.0669 118.303C70.9247 118.734 70.824 119.408 70.7341 119.997C70.6655 120.475 70.5963 120.926 71.0146 121.149L73.5727 122.194Z" fill="#E0E0E0"/>
<path d="M82.5389 116.531L81.8293 118.012L68.353 124.837V123.714L82.5389 116.531Z" fill="#263238"/>
<path d="M82.5377 116.533L68.3535 123.713L73.9234 130.37L78.037 128.288L78.3076 128.607C78.3076 128.607 79.0914 129.169 79.5886 128.917L79.9432 128.738L83.6417 126.865L83.9957 126.686C84.4935 126.434 84.1466 125.65 84.1466 125.65L83.8786 125.329L88.1087 123.188L82.5377 116.533Z" fill="#37474F"/>
<path d="M86.5704 124.737L85.4011 125.329C84.8232 125.621 83.9507 125.631 83.5591 125.185L74.4955 116.362L74.4857 116.35C74.0413 115.82 74.3479 115.12 74.6436 114.443C74.9208 113.809 75.1833 113.21 74.8538 112.818C73.9176 111.702 71.1782 111.901 69.3542 112.825C67.5303 113.748 66.1899 115.614 67.1261 116.731C67.4551 117.123 68.2655 117.179 69.1238 117.237C70.041 117.3 70.9892 117.366 71.4336 117.895L71.4521 117.919L78.1554 127.921C78.5235 128.38 78.1597 128.996 77.5819 129.288L76.4126 129.879L76.0117 129.402L77.181 128.81C77.4337 128.682 77.6124 128.415 77.4729 128.248L77.4544 128.223L70.7528 118.225C70.4849 117.924 69.7583 117.874 68.9904 117.821C68.0427 117.756 66.9677 117.682 66.4541 117.071C65.8996 116.41 65.8969 115.524 66.4454 114.578C66.947 113.713 67.8608 112.9 68.9534 112.347C70.0453 111.794 71.3721 111.473 72.5936 111.465C73.9296 111.458 74.9709 111.817 75.5254 112.478C76.0384 113.09 75.6915 113.884 75.3854 114.584C75.137 115.151 74.9023 115.687 75.1485 116L84.2105 124.821L84.2203 124.832C84.3603 124.999 84.747 124.98 85.0002 124.852L86.1695 124.261L86.5704 124.737Z" fill="#EBEBEB"/>
<path d="M77.8958 129.521C77.8958 129.117 77.5729 128.626 77.1742 128.424C76.9732 128.322 76.7919 128.314 76.6606 128.382L73.9941 129.729L75.0104 131.281L77.6927 129.924C77.8185 129.856 77.8958 129.717 77.8958 129.521Z" fill="#455A64"/>
<path d="M74.4985 131.238C74.8972 131.44 75.2202 131.276 75.2202 130.873C75.2202 130.469 74.8972 129.978 74.4985 129.776C74.0999 129.574 73.7764 129.738 73.7764 130.142C73.7769 130.545 74.0999 131.036 74.4985 131.238Z" fill="#263238"/>
<path d="M74.551 130.722C74.6822 130.789 74.789 130.735 74.789 130.602C74.789 130.469 74.6828 130.307 74.551 130.241C74.4197 130.174 74.313 130.228 74.313 130.361C74.313 130.494 74.4197 130.656 74.551 130.722Z" fill="#E0E0E0"/>
<path d="M88.8314 123.985C88.8314 123.582 88.5084 123.091 88.1092 122.889C87.9082 122.787 87.7269 122.779 87.5962 122.847L84.9297 124.194L85.946 125.746L88.6282 124.389C88.7535 124.321 88.8314 124.182 88.8314 123.985Z" fill="#455A64"/>
<path d="M85.4341 125.703C85.8328 125.905 86.1557 125.741 86.1557 125.338C86.1557 124.934 85.8328 124.443 85.4341 124.241C85.0354 124.039 84.7125 124.203 84.7119 124.607C84.7119 125.01 85.0354 125.501 85.4341 125.703Z" fill="#263238"/>
<path d="M85.4865 125.187C85.6178 125.254 85.7245 125.2 85.7245 125.067C85.7245 124.934 85.6183 124.772 85.4865 124.706C85.3553 124.639 85.2485 124.693 85.2485 124.826C85.2485 124.959 85.3547 125.121 85.4865 125.187Z" fill="#E0E0E0"/>
<path d="M85.3127 124.694L85.0007 124.852C84.8999 124.903 84.7785 124.936 84.6592 124.948L84.7305 125.524C84.968 125.498 85.2022 125.43 85.4015 125.329L85.6613 125.197L85.3127 124.694Z" fill="#E0E0E0"/>
<path d="M83.7504 126.512C83.7504 126.708 83.672 126.848 83.5478 126.914L79.7061 128.858C79.834 128.796 79.9903 128.51 80.0143 128.309C80.0421 128.075 80.0557 127.914 80.0377 127.714C80.0149 127.455 80.1668 127.209 80.4228 127.079L82.8741 125.842C83.0473 125.754 83.2679 125.775 83.4101 125.899C83.6105 126.074 83.7504 126.298 83.7504 126.512Z" fill="#455A64"/>
<path opacity="0.15" d="M0 101.658V137.193L33.5767 120.195V84.6611L0 101.658Z" fill="black"/>
<path d="M41.9664 118.221C41.9664 118.221 40.3304 120.652 34.4713 123.618C31.1796 125.285 4.89974 138.588 4.89974 138.588L1.35205 107.702L34.9239 90.7021L37.1356 111.741C37.4379 114.66 38.7303 117.758 41.9664 118.221Z" fill="#6863C7"/>
<path opacity="0.3" d="M41.9664 118.221C41.9664 118.221 40.3304 120.652 34.4713 123.618C31.1796 125.285 4.89974 138.588 4.89974 138.588L1.35205 107.702L34.9239 90.7021L37.1356 111.741C37.4379 114.66 38.7303 117.758 41.9664 118.221Z" fill="white"/>
<path d="M34.9258 90.7043L1.35233 107.7L1.34961 102.246L34.9258 85.2485V90.7043Z" fill="#6863C7"/>
<path d="M31.4822 105.064C31.0041 105.501 30.1092 106.061 29.5172 105.446C29.5058 105.434 29.4998 105.421 29.4895 105.409C29.8799 104.751 30.07 104.038 29.8685 103.37C29.8189 103.206 29.4867 102.893 29.277 103.082C28.6442 103.654 28.4242 104.466 28.7003 105.189C28.3299 105.719 27.8349 106.196 27.415 106.525C27.0136 106.84 26.4118 107.279 25.8334 107.256C25.0889 107.225 25.1782 106.228 25.1956 105.774C25.2032 105.572 24.7327 105.137 24.5693 105.447C24.1695 106.206 23.5677 106.916 22.9932 107.577C22.6555 107.966 22.3009 108.367 21.8739 108.684C21.7443 108.78 21.6093 108.88 21.4519 108.938C21.4519 108.938 21.4437 108.94 21.4366 108.941C21.4284 108.908 21.4072 108.856 21.4023 108.784C21.3849 108.52 20.9383 108.159 20.7515 108.519C20.3697 109.255 19.757 110.953 18.689 111.153C18.3578 111.215 18.0839 110.978 17.7484 110.98C17.4706 110.982 17.2484 111.078 17.0546 111.241C16.6199 111.605 16.3531 112.147 16.0072 112.574C15.8722 112.741 15.626 113.12 15.3798 113.184C15.0383 113.272 15.0209 112.713 14.9681 112.465C14.93 112.285 14.6587 112.026 14.4327 112.163C13.9431 112.461 13.6632 112.886 13.441 113.348C13.2994 113.11 13.2351 112.844 13.2013 112.558C13.1801 112.38 12.813 112.059 12.6387 112.295C12.0739 113.058 11.3638 113.763 10.6084 114.385C10.1084 114.797 8.64879 116.004 7.93969 115.317C7.66139 115.048 7.57207 114.687 7.58732 114.299C8.25884 113.965 8.80837 113.377 9.21139 112.819C9.93193 111.824 10.4722 110.612 10.5882 109.432C10.6013 109.297 10.4602 109.102 10.2898 109.105C9.32413 109.123 8.64988 110.275 8.26538 110.914C7.69951 111.855 7.14181 112.975 7.05794 114.05C7.05576 114.08 7.05794 114.114 7.05685 114.145C6.7535 114.249 6.42454 114.295 6.06291 114.248C5.92022 114.229 5.92076 114.515 6.06454 114.54C6.42236 114.601 6.75894 114.578 7.07428 114.495C7.15216 115.123 7.48329 115.812 8.15264 116.032C9.06434 116.333 10.0675 115.638 10.7129 115.157C11.4689 114.593 12.1736 113.939 12.7727 113.233C12.8985 113.559 13.0886 113.858 13.399 114.113C13.5406 114.229 13.7835 114.28 13.869 114.081C14.0346 113.698 14.2083 113.325 14.503 113.024C14.6827 113.512 15.0106 113.997 15.6211 113.84C16.3253 113.659 16.791 112.749 17.1569 112.261C17.3448 112.01 17.5578 111.603 17.9624 111.616C18.4352 111.632 18.6394 111.917 19.1546 111.724C20.142 111.355 20.6654 110.339 21.0968 109.452C21.1937 109.529 21.313 109.584 21.466 109.6C21.9578 109.65 22.4126 109.21 22.7154 108.933C23.4065 108.302 24.0857 107.553 24.6259 106.769C24.7381 107.173 24.9582 107.538 25.377 107.754C26.0316 108.091 26.8028 107.801 27.3747 107.467C27.995 107.104 28.6611 106.539 29.1616 105.887C30.0493 106.754 31.2519 106.315 32.0258 105.535C32.2632 105.294 31.7649 104.806 31.4822 105.064ZM8.29533 112.149C8.54477 111.618 8.83179 111.094 9.18253 110.608C9.38023 110.335 9.68358 109.914 10.0637 109.727C9.90361 110.689 9.45212 111.649 8.91784 112.475C8.59815 112.97 8.17497 113.493 7.64559 113.847C7.77739 113.219 8.09437 112.576 8.29533 112.149Z" fill="#FAFAFA"/>
<path d="M33.1744 119.404C30.0428 120.955 26.2881 121.511 22.7274 121.52C19.1993 121.529 15.126 121.082 12.3321 119.024C12.1665 118.902 12.1458 118.458 12.4655 118.592C15.7333 119.95 19.1443 120.618 22.7677 120.571C25.6607 120.534 28.709 120.147 31.3918 119.108C31.1598 119.08 30.9284 119.051 30.6974 119.017C30.0994 118.928 29.5161 118.815 28.9394 118.65C28.6829 118.577 28.4263 118.499 28.1791 118.405C27.8899 118.294 27.6475 118.118 27.3981 117.952C27.2995 117.886 27.2151 117.741 27.2652 117.634C27.3344 117.486 27.4384 117.582 27.5566 117.569C27.848 117.537 28.166 117.636 28.4432 117.704C28.6987 117.767 28.9579 117.817 29.2182 117.862C29.7661 117.958 30.3146 118.05 30.8679 118.118C31.9926 118.256 33.127 118.314 34.2598 118.378C34.6552 118.401 34.8104 118.854 34.6443 119.13C34.0883 120.053 33.2762 120.807 32.3678 121.472C31.9375 121.787 31.4866 122.08 31.0307 122.367C30.5874 122.645 30.1512 122.947 29.667 123.168C29.1638 123.397 28.9535 122.598 29.258 122.347C30.0112 121.726 30.9567 121.276 31.7627 120.706C32.3498 120.291 32.8977 119.828 33.3536 119.303C33.3372 119.302 33.3214 119.3 33.3056 119.299C33.2697 119.339 33.2294 119.378 33.1744 119.404Z" fill="#FAFAFA"/>
</svg>
