<svg width="28" height="26" viewBox="0 0 28 26" fill="none" xmlns="http://www.w3.org/2000/svg">
<g clip-path="url(#clip0_171_63)">
<path d="M13.2985 0H7.68682C7.1872 0 6.78076 0.377406 6.78076 0.841344V6.05221C6.78076 6.51615 7.1872 6.89355 7.68682 6.89355H13.2985C13.7982 6.89355 14.2046 6.51615 14.2046 6.05221V0.841344C14.2045 0.377406 13.7981 0 13.2985 0ZM13.3277 6.05221C13.3277 6.06719 13.3147 6.07933 13.2985 6.07933H7.68682C7.67069 6.07933 7.65762 6.06719 7.65762 6.05221V0.841344C7.65762 0.826363 7.67069 0.814227 7.68682 0.814227H13.2985C13.3147 0.814227 13.3277 0.826363 13.3277 0.841344V6.05221Z" fill="#6863C7"/>
<path d="M13.2985 19.1064H7.68682C7.1872 19.1064 6.78076 19.4839 6.78076 19.9478V25.1587C6.78076 25.6226 7.1872 26 7.68682 26H13.2985C13.7982 26 14.2046 25.6226 14.2046 25.1587V19.9477C14.2045 19.4839 13.7981 19.1064 13.2985 19.1064ZM13.3277 25.1586C13.3277 25.1736 13.3147 25.1857 13.2985 25.1857H7.68682C7.67069 25.1857 7.65762 25.1736 7.65762 25.1586V19.9477C7.65762 19.9328 7.67069 19.9206 7.68682 19.9206H13.2985C13.3147 19.9206 13.3277 19.9328 13.3277 19.9477V25.1586Z" fill="#6863C7"/>
<path d="M21.0907 14.8831L13.1408 7.50106C13.0154 7.38457 12.8268 7.34989 12.6631 7.41281C12.4992 7.47583 12.3924 7.62426 12.3924 7.78889V9.55298H7.68682C7.1872 9.55298 6.78076 9.93039 6.78076 10.3943V15.6052C6.78076 16.0691 7.1872 16.4465 7.68682 16.4465H12.3925V18.2106C12.3925 18.3602 12.4808 18.4977 12.6225 18.5688C12.7642 18.64 12.9365 18.6332 13.0712 18.5512L15.0904 17.3223L17.5722 22.8859C17.6421 23.0426 17.8054 23.1373 17.9774 23.1373C18.0334 23.1373 18.0902 23.1273 18.145 23.1062L20.7373 22.1091C20.8447 22.0678 20.9301 21.9886 20.9746 21.8888C21.019 21.789 21.019 21.677 20.9746 21.5772L18.4939 16.0162L20.8678 15.57C21.0261 15.5402 21.1539 15.4321 21.2005 15.2885C21.2471 15.145 21.205 14.9892 21.0907 14.8831ZM12.3925 15.6324H7.68682C7.67069 15.6324 7.65762 15.6202 7.65762 15.6052V10.3944C7.65762 10.3794 7.67069 10.3673 7.68682 10.3673H12.3925V15.6324ZM17.7982 15.3162C17.6698 15.3404 17.5597 15.4166 17.4981 15.524C17.4366 15.6314 17.4299 15.7587 17.4801 15.8711L19.9967 21.5128L18.2145 22.1983L15.6979 16.5565C15.6479 16.4445 15.5468 16.359 15.422 16.3233C15.3797 16.3112 15.3362 16.3052 15.2929 16.3052C15.2084 16.3052 15.1248 16.3279 15.0526 16.3718L13.2693 17.4571V8.77176L19.8931 14.9225L17.7982 15.3162Z" fill="#6863C7"/>
<path d="M12.6732 2.29063C12.502 2.13164 12.2244 2.13164 12.0532 2.29063L10.025 4.17396L8.93201 3.15909C8.76078 3.0001 8.48319 3.0001 8.31201 3.15909C8.14079 3.31809 8.14079 3.57586 8.31201 3.7348L9.71491 5.03749C9.8005 5.11702 9.91272 5.15673 10.0249 5.15673C10.137 5.15673 10.2493 5.11702 10.3348 5.03749L12.6731 2.86629C12.8444 2.70734 12.8444 2.44958 12.6732 2.29063Z" fill="#6863C7"/>
</g>
<defs>
<clipPath id="clip0_171_63">
<rect width="28" height="26" fill="white"/>
</clipPath>
</defs>
</svg>
