<svg width="658" height="611" viewBox="0 0 658 611" fill="none" xmlns="http://www.w3.org/2000/svg">
<path d="M96.358 286.953C-32.1218 361.084 -32.1191 481.272 96.3647 555.402C224.849 629.532 433.16 629.532 561.642 555.402C690.123 481.272 690.119 361.084 561.635 286.953C433.15 212.823 224.838 212.823 96.358 286.953Z" fill="#FAFAFA"/>
<path d="M571.453 348.346L557.276 340.159C557.276 340.159 548.838 305.122 552.2 273.595C556.928 229.27 586.123 212.591 597.226 216.414C608.328 220.237 611.543 233.135 593.174 259.534C582.336 275.11 569.021 307.553 571.453 348.346Z" fill="#64BA93"/>
<g opacity="0.65">
<path d="M571.453 348.346L557.276 340.159C557.276 340.159 548.838 305.122 552.2 273.595C556.928 229.27 586.123 212.591 597.226 216.414C608.328 220.237 611.543 233.135 593.174 259.534C582.336 275.11 569.021 307.553 571.453 348.346Z" fill="white"/>
</g>
<path d="M565.578 331.133C565.624 331.13 565.668 331.125 565.713 331.116C566.246 331.015 566.597 330.501 566.496 329.968C558.724 289.085 573.016 243.144 590.713 224.027C591.082 223.63 591.057 223.007 590.658 222.639C590.258 222.275 589.637 222.295 589.269 222.694C571.249 242.159 556.678 288.85 564.564 330.335C564.657 330.822 565.097 331.157 565.578 331.133Z" fill="#186D47"/>
<path d="M607.133 368.932C609.25 370.01 614.883 365.191 616.453 364.02C619.141 362.014 621.261 359.26 622.608 356.197C624.176 352.633 624.425 348.884 623.686 345.066C623.302 343.086 622.645 341.17 621.992 339.262C621.349 337.389 620.706 335.515 620.064 333.642C619.429 331.793 618.787 329.881 618.937 327.933C619.239 324.008 622.565 321.101 625.596 318.585C628.946 315.803 632.399 312.181 632.143 307.487C631.944 303.865 629.898 300.595 627.507 297.864C625.118 295.134 622.325 292.757 620.142 289.858C618.572 287.771 617.303 285.29 617.41 282.681C617.476 281.059 618.069 279.505 618.769 278.043C620.274 274.902 622.322 271.991 623.3 268.65C624.278 265.308 623.91 261.231 621.225 259.011C619.022 257.188 615.879 257.076 613.039 257.408C610.411 257.716 607.896 259.034 605.654 260.433C598.405 264.953 594.593 273.997 586.839 277.584C583.849 278.968 580.516 279.407 577.377 280.408C574.237 281.409 571.075 283.196 569.749 286.213C567.136 292.159 572.889 299.034 571.157 305.293C569.625 310.832 564.433 313.184 561.705 318.244C560.513 320.458 560.337 322.955 560.674 325.446C561.243 329.663 562.019 332.739 564.291 337.346C566.169 341.153 571.453 348.349 571.453 348.349C571.453 348.349 606.808 368.767 607.133 368.932Z" fill="#64BA93"/>
<g opacity="0.3">
<path d="M607.133 368.932C609.25 370.01 614.883 365.191 616.453 364.02C619.141 362.014 621.261 359.26 622.608 356.197C624.176 352.633 624.425 348.884 623.686 345.066C623.302 343.086 622.645 341.17 621.992 339.262C621.349 337.389 620.706 335.515 620.064 333.642C619.429 331.793 618.787 329.881 618.937 327.933C619.239 324.008 622.565 321.101 625.596 318.585C628.946 315.803 632.399 312.181 632.143 307.487C631.944 303.865 629.898 300.595 627.507 297.864C625.118 295.134 622.325 292.757 620.142 289.858C618.572 287.771 617.303 285.29 617.41 282.681C617.476 281.059 618.069 279.505 618.769 278.043C620.274 274.902 622.322 271.991 623.3 268.65C624.278 265.308 623.91 261.231 621.225 259.011C619.022 257.188 615.879 257.076 613.039 257.408C610.411 257.716 607.896 259.034 605.654 260.433C598.405 264.953 594.593 273.997 586.839 277.584C583.849 278.968 580.516 279.407 577.377 280.408C574.237 281.409 571.075 283.196 569.749 286.213C567.136 292.159 572.889 299.034 571.157 305.293C569.625 310.832 564.433 313.184 561.705 318.244C560.513 320.458 560.337 322.955 560.674 325.446C561.243 329.663 562.019 332.739 564.291 337.346C566.169 341.153 571.453 348.349 571.453 348.349C571.453 348.349 606.808 368.767 607.133 368.932Z" fill="white"/>
</g>
<path d="M586.612 358.244C586.625 358.242 586.638 358.242 586.638 358.242C587.163 358.194 587.538 357.741 587.493 357.231C584.099 320.458 599.419 278.901 611.457 266.444C611.814 266.076 611.804 265.488 611.434 265.13C611.063 264.774 610.477 264.786 610.12 265.153C597.841 277.86 582.2 320.111 585.64 357.401C585.685 357.9 586.117 358.269 586.612 358.244Z" fill="#186D47"/>
<path d="M590.266 312.903C590.357 312.898 590.448 312.882 590.537 312.848C602.199 308.59 616.932 307.201 617.079 307.189C617.591 307.142 617.967 306.688 617.922 306.178C617.874 305.668 617.465 305.284 616.909 305.337C616.759 305.351 601.793 306.761 589.9 311.104C589.418 311.279 589.169 311.813 589.345 312.295C589.49 312.686 589.869 312.924 590.266 312.903Z" fill="#186D47"/>
<path d="M249.434 567.786C252.47 567.786 255.377 567.074 257.623 565.779L263.781 562.224C266.524 560.64 268.097 558.305 268.097 555.813C268.097 553.323 266.524 550.988 263.781 549.407C263.781 549.407 184.941 504.115 184.929 504.108C192.173 496.079 195.39 487.039 194.257 477.786C192.815 465.99 184.179 454.971 169.937 446.754C154.52 437.859 134.072 432.96 112.358 432.96C90.6478 432.96 70.1968 437.859 54.7795 446.754C38.9533 455.884 30.2383 468.167 30.2383 481.339C30.2383 494.511 38.9533 506.792 54.7795 515.924C70.1954 524.817 90.6384 529.716 112.342 529.716C112.345 529.716 112.349 529.716 112.349 529.716C133.263 529.716 153.034 525.161 168.239 516.87L240.25 565.275C242.735 566.9 245.988 567.786 249.434 567.786Z" fill="#E0E0E0"/>
<path d="M394.663 559.809C396.951 566.019 403.576 569.871 414.621 571.325L603.369 461.068L623.84 440.345C625.015 439.158 623.796 437.195 622.21 437.722L584.531 450.199L394.663 559.809Z" fill="#E0E0E0"/>
<path d="M333.464 543.926L151.707 439.167C144.531 435.026 144.531 428.312 151.707 424.172L413.964 272.563C421.14 268.423 432.776 268.423 439.952 272.563L621.701 377.319C628.877 381.459 628.877 388.174 621.701 392.315L359.452 543.926C352.275 548.066 340.638 548.066 333.464 543.926Z" fill="#E0E0E0"/>
<path d="M81.3677 132.876V441.479C79.8423 441.479 78.3169 441.101 76.9265 440.359C76.886 440.345 76.859 440.318 76.8185 440.305C76.778 440.278 76.724 440.251 76.6835 440.224L48.4975 423.955L48.484 423.941L48.457 113.895L76.886 130.286L81.3542 132.863V132.876H81.3677Z" fill="#E0E0E0"/>
<path d="M245.862 0L48.4614 113.894L81.3613 132.875L278.763 18.9794L245.862 0Z" fill="#EBEBEB"/>
<path d="M279.183 328.835L97.8103 433.438L86.0391 440.224C84.5948 441.06 82.9884 441.479 81.3685 441.479V430.268L81.355 132.876H81.3685L85.1212 130.704L85.9177 130.232C85.9312 130.232 85.9447 130.232 85.9582 130.218C85.9852 130.205 86.0122 130.192 86.0391 130.178L97.8103 123.379L278.765 18.978L279.183 328.835Z" fill="#FAFAFA"/>
<path d="M81.355 132.876H81.3685V132.875L179.886 75.6144L278.519 18.552L279.255 18.1257L279.258 18.977L279.648 173.906L279.672 328.834V329.116L279.428 329.258L182.789 384.837L86.0391 440.223L182.434 384.224L278.939 328.412L278.695 328.835L278.301 173.907L278.274 18.9783L279.011 19.4033L180.242 76.2309L81.3685 132.876H81.355Z" fill="#E0E0E0"/>
<path opacity="0.1" d="M69.8632 279.144L72.7804 127.925L157.307 75.2175L68.813 125.635L69.8632 279.144Z" fill="black"/>
<path opacity="0.1" d="M60.8643 318.052L61.1099 121.19L226.969 26.6099L57.2344 118.953L60.8643 318.052Z" fill="black"/>
<path opacity="0.1" d="M260.102 22.8799C260.476 23.6124 260.662 24.0401 260.662 24.0401L206.641 55.2092L249.515 15.8164C254.952 16.8902 258.311 19.3751 260.102 22.8799Z" fill="black"/>
<path d="M206.641 55.2078L260.662 24.0386L260.993 15.4116L206.641 55.2078Z" fill="#FAFAFA"/>
<path d="M251.3 141.33L127.075 213.005C125.507 213.91 124.236 212.95 124.236 210.86C124.236 208.77 125.507 206.345 127.075 205.44L251.3 133.765C252.867 132.859 254.138 133.82 254.138 135.91C254.138 137.999 252.868 140.425 251.3 141.33Z" fill="#E0E0E0"/>
<path d="M229.406 172.831L148.97 219.24C147.403 220.145 146.131 219.185 146.131 217.095C146.131 215.007 147.402 212.58 148.97 211.675L229.406 165.266C230.973 164.361 232.244 165.321 232.244 167.411C232.244 169.5 230.973 171.927 229.406 172.831Z" fill="#E0E0E0"/>
<path d="M251.3 261.912L127.075 333.587C125.507 334.493 124.236 333.532 124.236 331.442C124.236 329.353 125.507 326.927 127.075 326.022L251.3 254.347C252.867 253.442 254.138 254.402 254.138 256.492C254.138 258.582 252.868 261.009 251.3 261.912Z" fill="#E0E0E0"/>
<path d="M229.406 293.415L148.97 339.824C147.403 340.729 146.131 339.769 146.131 337.679C146.131 335.591 147.402 333.163 148.97 332.259L229.406 285.85C230.973 284.945 232.244 285.905 232.244 287.995C232.244 290.083 230.973 292.51 229.406 293.415Z" fill="#E0E0E0"/>
<path d="M229.406 134.684L148.97 181.093C147.403 181.999 146.131 181.038 146.131 178.949C146.131 176.859 147.402 174.433 148.97 173.528L229.406 127.119C230.973 126.214 232.244 127.174 232.244 129.264C232.244 131.354 230.973 133.781 229.406 134.684Z" fill="#E0E0E0"/>
<path d="M81.3677 430.268V441.479C79.8423 441.479 78.3169 441.101 76.9265 440.359C76.886 440.345 76.859 440.318 76.8185 440.305C76.778 440.278 76.724 440.251 76.6835 440.224L48.4975 423.955L48.484 423.941L48.457 113.895L76.67 130.178C76.7375 130.218 76.805 130.259 76.886 130.286C78.3034 131.068 79.8018 131.419 81.3542 131.433V132.876L81.3677 430.268Z" fill="#37474F"/>
<path d="M97.8103 123.379V433.439L86.0391 440.224C84.5948 441.061 82.9884 441.479 81.3685 441.479V430.268L81.355 132.876V131.433C82.9479 131.433 84.4733 131.055 85.9177 130.232C85.9312 130.232 85.9447 130.232 85.9582 130.219C85.9852 130.205 86.0121 130.192 86.0391 130.178L97.8103 123.379Z" fill="#455A64"/>
<path d="M35.877 458.003V478.574C35.877 489.742 43.2609 500.909 58.0275 509.429C87.5621 526.47 135.447 526.47 164.982 509.429C179.75 500.909 187.132 489.742 187.134 478.574V458.003C187.134 446.836 179.75 435.669 164.983 427.148C135.449 410.107 87.5634 410.107 58.0289 427.148C43.2596 435.669 35.877 446.836 35.877 458.003ZM179.819 458.005C179.819 466.938 173.25 475.647 161.325 482.528C148.135 490.138 130.44 494.33 111.504 494.33C92.5662 494.33 74.873 490.138 61.6844 482.528C49.7594 475.647 43.1907 466.938 43.1907 458.005C43.1907 449.07 49.758 440.359 61.6844 433.479C74.8743 425.869 92.5675 421.678 111.504 421.678C130.442 421.678 148.135 425.869 161.325 433.479C173.251 440.359 179.819 449.07 179.819 458.005Z" fill="#6863C7"/>
<path opacity="0.3" d="M164.987 427.148C135.452 410.107 87.5673 410.107 58.0327 427.148C28.4982 444.189 28.4982 471.819 58.0327 488.858C87.5686 505.899 135.452 505.899 164.987 488.858C194.52 471.819 194.52 444.189 164.987 427.148ZM161.329 482.528C148.14 490.138 130.446 494.33 111.508 494.33C92.5714 494.33 74.8782 490.138 61.6883 482.528C49.7632 475.647 43.1946 466.938 43.1946 458.005C43.1946 449.07 49.7619 440.359 61.6883 433.479C74.8782 425.869 92.5714 421.678 111.508 421.678C130.446 421.678 148.139 425.869 161.329 433.479C173.255 440.361 179.822 449.07 179.822 458.005C179.822 466.938 173.255 475.647 161.329 482.528Z" fill="white"/>
<path d="M179.829 458.001C179.829 461.51 178.819 464.96 176.874 468.292C173.876 463.102 168.595 458.235 161.325 454.054C148.145 446.437 130.446 442.242 111.502 442.242C92.574 442.242 74.874 446.437 61.6949 454.054C54.4243 458.235 49.1449 463.102 46.1305 468.292C44.1988 464.958 43.1904 461.509 43.1904 458.001C43.1904 449.069 49.7591 440.356 61.6949 433.472C74.874 425.87 92.574 421.675 111.502 421.675C130.446 421.675 148.145 425.87 161.325 433.472C173.26 440.357 179.829 449.069 179.829 458.001Z" fill="#6863C7"/>
<path opacity="0.1" d="M179.829 458.001C179.829 461.51 178.819 464.96 176.874 468.292C173.876 463.102 168.595 458.235 161.325 454.054C148.145 446.437 130.446 442.242 111.502 442.242C92.574 442.242 74.874 446.437 61.6949 454.054C54.4243 458.235 49.1449 463.102 46.1305 468.292C44.1988 464.958 43.1904 461.509 43.1904 458.001C43.1904 449.069 49.7591 440.356 61.6949 433.472C74.874 425.87 92.574 421.675 111.502 421.675C130.446 421.675 148.145 425.87 161.325 433.472C173.26 440.357 179.829 449.069 179.829 458.001Z" fill="black"/>
<path opacity="0.6" d="M161.329 442.792C148.14 435.182 130.445 430.99 111.508 430.99C92.5699 430.99 74.8767 435.182 61.6881 442.792C51.8473 448.47 45.6674 455.393 43.8032 462.66C45.6674 469.927 51.8486 476.851 61.6881 482.529C74.878 490.138 92.5726 494.33 111.508 494.33C130.445 494.33 148.139 490.138 161.329 482.529C171.169 476.851 177.349 469.927 179.215 462.66C177.349 455.394 171.171 448.47 161.329 442.792Z" fill="white"/>
<path opacity="0.1" d="M129.328 500.424V520.978C142.391 519.165 154.78 515.32 164.976 509.429C179.749 500.906 187.136 489.739 187.136 478.57V458.002C187.136 455.75 186.83 453.499 186.23 451.262H186.215C189.799 464.55 182.719 478.613 164.976 488.861C154.78 494.752 142.391 498.596 129.328 500.424Z" fill="black"/>
<path d="M162.734 501.953C162.72 498.576 165.076 494.459 167.996 492.759C169.448 491.913 170.765 491.827 171.726 492.366L171.727 492.364L171.74 492.37L171.743 492.372L197.201 506.891C197.208 506.895 197.212 506.898 197.219 506.901L197.224 506.905C198.177 507.458 198.771 508.637 198.778 510.317C198.791 513.693 196.436 517.81 193.516 519.51C192.055 520.36 190.731 520.445 189.77 519.896L164.315 505.379L164.317 505.376C163.345 504.834 162.741 503.65 162.734 501.953Z" fill="#37474F"/>
<path d="M164.315 505.381C163.345 504.834 162.741 503.65 162.734 501.954C162.729 500.682 163.061 499.305 163.633 497.991L196.463 516.753C195.622 517.901 194.608 518.876 193.514 519.514C192.054 520.364 190.73 520.449 189.768 519.9L164.313 505.383L164.315 505.381Z" fill="#263238"/>
<path d="M189.218 519.439C189.2 515.044 192.266 509.687 196.066 507.473C197.929 506.387 199.616 506.271 200.861 506.942L200.866 506.932L200.938 506.97L200.942 506.973L265.346 539.982L252.75 562.23L191.267 523.898C190.01 523.185 189.227 521.642 189.218 519.439Z" fill="#6863C7"/>
<path opacity="0.1" d="M252.75 562.231L191.267 523.899C190.01 523.185 189.227 521.643 189.218 519.44C189.208 517.081 190.105 514.457 191.509 512.178L259.244 550.761L252.75 562.231Z" fill="black"/>
<path d="M259.117 561.562C264.101 558.663 268.121 551.638 268.098 545.871C268.073 540.103 264.016 537.78 259.032 540.684C254.048 543.587 250.028 550.611 250.051 556.375C250.074 562.138 254.133 564.461 259.117 561.562Z" fill="#6863C7"/>
<g opacity="0.2">
<path d="M259.117 561.562C264.101 558.663 268.121 551.638 268.098 545.871C268.073 540.103 264.016 537.78 259.032 540.684C254.048 543.587 250.028 550.611 250.051 556.375C250.074 562.138 254.133 564.461 259.117 561.562Z" fill="black"/>
</g>
<path d="M585.978 436.179L619.517 429.615C620.495 429.425 621.155 430.578 620.497 431.323L597.743 457.07L585.978 436.179Z" fill="#FFA8A7"/>
<path d="M620.498 431.322C621.155 430.578 620.495 429.425 619.518 429.614L612.969 430.895C614.804 432.031 615.847 434.097 615.677 436.244L615.629 436.828L620.498 431.322Z" fill="#263238"/>
<path d="M441.358 546.882L444.099 545.309L447.419 543.423L597.743 457.076C598.986 453.432 598.383 449.449 596.809 445.957C594.431 440.635 589.811 436.439 585.985 436.193L435.734 522.504L429.404 526.131C433.632 524.01 445.569 544.696 441.358 546.882Z" fill="#455A64"/>
<path d="M451.822 540.928L457.943 537.405C459.752 536.44 458.717 532.005 456.599 527.415C453.803 521.312 448.297 515.404 445.9 516.674L441.381 519.263L439.782 520.217C442.182 518.945 447.692 524.852 450.488 530.956C452.51 535.357 453.536 539.637 452.001 540.802L451.984 540.811C451.943 540.864 451.889 540.897 451.822 540.928Z" fill="#EBEBEB"/>
<path d="M441.357 546.882L447.418 543.423C451.561 541.266 440.115 521.179 435.734 522.503C435.654 522.514 435.567 522.556 435.482 522.598L429.404 526.131C433.632 524.01 445.569 544.696 441.357 546.882Z" fill="#EBEBEB"/>
<path opacity="0.15" d="M620.648 430.194L619.516 429.614L595.177 442.915L438.019 533.21C437.784 532.833 437.591 532.808 437.434 533.067C441.01 538.639 443.711 545.658 441.356 546.882L444.097 545.309L447.417 543.423L597.741 457.076L597.743 457.069L620.496 431.322C620.804 430.975 620.814 430.541 620.648 430.194Z" fill="black"/>
<path d="M415.647 561.584L441.358 546.882C443.159 545.948 442.16 541.552 440.084 536.987C437.307 530.872 431.824 524.91 429.406 526.131C429.406 526.131 429.393 526.128 429.374 526.139L403.585 540.898C398.464 543.852 403.174 554.969 408.888 559.935C411.011 561.809 413.388 562.641 415.647 561.584Z" fill="#F28F8F"/>
<path opacity="0.1" d="M417.182 553.615C415.706 547.823 411.012 542.145 406.694 540.931C405.111 540.486 403.8 540.707 402.847 541.446C398.978 545.035 403.48 555.236 408.886 559.935C410.971 561.773 413.295 562.596 415.514 561.63C417.439 560.504 418.182 557.54 417.182 553.615Z" fill="black"/>
<path d="M189.17 431.87L350.366 522.834L597.91 380.878L436.731 289.902L189.17 431.87Z" fill="#6863C7"/>
<path opacity="0.6" d="M189.17 431.87L350.366 522.834L597.91 380.878L436.731 289.902L189.17 431.87Z" fill="black"/>
<path d="M352.116 516.183L196.352 427.751C200.221 416.778 199.931 413.446 195.552 398.839L350.368 486.373C350.368 486.373 353.183 486.165 352.116 516.183Z" fill="#F5F5F5"/>
<path d="M342.811 474.38C350.67 478.888 357.04 489.849 357.042 498.866V517.995C357.042 527.013 350.67 530.666 342.81 526.161L189.189 438.954L189.17 431.869L340.846 517.432C345.562 520.137 349.378 517.945 349.376 512.534L349.242 495.499C349.237 490.089 345.411 483.511 340.693 480.806L189.189 395.207V387.175L342.811 474.38Z" fill="#6863C7"/>
<path opacity="0.5" d="M342.811 474.38C350.67 478.888 357.04 489.849 357.042 498.866V517.995C357.042 527.013 350.67 530.666 342.81 526.161L189.189 438.954L189.17 431.869L340.846 517.432C345.562 520.137 349.378 517.945 349.376 512.534L349.242 495.499C349.237 490.089 345.411 483.511 340.693 480.806L189.189 395.207V387.175L342.811 474.38Z" fill="black"/>
<path d="M189.188 387.191L436.734 245.231L590.345 332.428C598.2 336.932 604.576 347.904 604.577 356.914L604.581 376.05C604.573 380.54 602.996 383.707 600.407 385.192L352.862 527.151C355.451 525.666 357.026 522.499 357.036 518.01L357.058 498.857C357.058 489.846 350.683 478.876 342.828 474.372L189.188 387.191Z" fill="#6863C7"/>
<path opacity="0.35" d="M189.188 387.191L436.734 245.231L590.345 332.428C598.2 336.932 604.576 347.904 604.577 356.914L604.581 376.05C604.573 380.54 602.996 383.707 600.407 385.192L352.862 527.151C355.451 525.666 357.026 522.499 357.036 518.01L357.058 498.857C357.058 489.846 350.683 478.876 342.828 474.372L189.188 387.191Z" fill="black"/>
<path d="M352.888 484.927C355.461 489.359 357.055 494.353 357.055 498.858L357.033 518.011C357.024 522.501 355.448 525.668 352.859 527.152L600.405 385.193C602.994 383.708 604.571 380.542 604.579 376.051L604.575 356.915C604.573 352.409 602.98 347.417 600.405 342.984L352.888 484.927Z" fill="#6863C7"/>
<path opacity="0.45" d="M352.888 484.927C355.461 489.359 357.055 494.353 357.055 498.858L357.033 518.011C357.024 522.501 355.448 525.668 352.859 527.152L600.405 385.193C602.994 383.708 604.571 380.542 604.579 376.051L604.575 356.915C604.573 352.409 602.98 347.417 600.405 342.984L352.888 484.927Z" fill="black"/>
<path d="M566.97 361.957C571.581 381.979 571.515 389.8 566.972 404.484L555.187 411.284C559.732 396.599 559.797 388.776 555.186 368.756L566.97 361.957Z" fill="#6863C7"/>
<path d="M404.605 455.193C409.217 475.214 409.152 482.783 404.607 497.467L392.822 504.267C397.367 489.582 397.432 482.013 392.819 461.992L404.605 455.193Z" fill="#6863C7"/>
<path d="M156.655 384.802L317.851 475.767L565.395 333.81L404.215 242.835L156.655 384.802Z" fill="#6863C7"/>
<path opacity="0.4" d="M156.655 384.802L317.851 475.767L565.395 333.81L404.215 242.835L156.655 384.802Z" fill="black"/>
<path d="M319.601 469.116L163.838 380.684C167.707 369.709 167.417 364.799 163.038 350.192L317.854 437.726C317.854 437.726 320.667 439.098 319.601 469.116Z" fill="#F5F5F5"/>
<path d="M310.296 425.733C318.155 430.241 324.526 441.203 324.526 450.219V470.928C324.526 479.945 318.155 483.599 310.294 479.092L156.674 391.889L156.656 384.802L308.331 470.365C313.047 473.07 316.864 470.877 316.86 465.467L316.726 446.853C316.721 441.444 312.895 434.866 308.178 432.16L156.674 346.559V338.527L310.296 425.733Z" fill="#6863C7"/>
<path opacity="0.25" d="M310.296 425.733C318.155 430.241 324.526 441.203 324.526 450.219V470.928C324.526 479.945 318.155 483.599 310.294 479.092L156.674 391.889L156.656 384.802L308.331 470.365C313.047 473.07 316.864 470.877 316.86 465.467L316.726 446.853C316.721 441.444 312.895 434.866 308.178 432.16L156.674 346.559V338.527L310.296 425.733Z" fill="black"/>
<path d="M156.672 338.544L404.217 196.584L557.828 283.781C565.683 288.286 572.059 299.257 572.06 308.268L572.064 328.982C572.056 333.473 570.48 336.639 567.89 338.125L320.345 480.084C322.934 478.598 324.509 475.434 324.519 470.943L324.541 450.21C324.541 441.201 318.166 430.229 310.311 425.725L156.672 338.544Z" fill="#6863C7"/>
<path d="M320.373 436.279C322.946 440.712 324.54 445.706 324.54 450.211L324.519 470.944C324.509 475.435 322.934 478.6 320.345 480.085L567.89 338.126C570.479 336.64 572.056 333.474 572.064 328.983L572.06 308.269C572.059 303.762 570.466 298.771 567.89 294.336L320.373 436.279Z" fill="#6863C7"/>
<path opacity="0.15" d="M320.373 436.279C322.946 440.712 324.54 445.706 324.54 450.211L324.519 470.944C324.509 475.435 322.934 478.6 320.345 480.085L567.89 338.126C570.479 336.64 572.056 333.474 572.064 328.983L572.06 308.269C572.059 303.762 570.466 298.771 567.89 294.336L320.373 436.279Z" fill="black"/>
<path d="M534.454 313.309C539.065 333.333 538.999 342.733 534.455 357.417L522.672 364.216C527.217 349.533 527.282 340.13 522.67 320.108L534.454 313.309Z" fill="#6863C7"/>
<path d="M372.09 406.663C376.702 426.684 376.637 435.752 372.092 450.436L360.307 457.235C364.852 442.551 364.917 433.424 360.306 413.403L372.09 406.663Z" fill="#6863C7"/>
<g opacity="0.4">
<path d="M534.454 313.309C539.065 333.333 538.999 342.733 534.455 357.417L522.672 364.216C527.217 349.533 527.282 340.13 522.67 320.108L534.454 313.309Z" fill="white"/>
<path d="M372.09 406.663C376.702 426.684 376.637 435.752 372.092 450.436L360.307 457.235C364.852 442.551 364.917 433.424 360.306 413.403L372.09 406.663Z" fill="white"/>
</g>
<path d="M406.246 293.793L394.743 271.147L371.592 284.687L400.132 318.357C400.132 318.357 414.278 317.049 416.556 309.672C418.834 302.297 410.143 296.245 406.246 293.793Z" fill="#C8856A"/>
<path d="M422.556 302.686C423.966 303.65 424.83 304.808 425.764 306.189C426.697 307.57 426.408 314.275 427.298 317.386C428.189 320.497 428.876 321.325 430.363 325.225C432.012 329.546 435.061 333.493 431.618 344.598C428.128 355.853 422.653 360.997 417.996 363.711C415.548 365.137 412.38 365.072 412.38 365.072C412.38 365.072 406.277 362.767 407.214 359.161C408.149 355.555 422.556 302.686 422.556 302.686Z" fill="#263238"/>
<path d="M395.779 314.878C395.948 316.022 397.549 317.779 398.2 318.714C400.388 321.856 401.394 326.104 402.154 329.818C405.752 347.393 398.76 356.328 408.227 362.919C410.97 364.644 416.658 364.171 425.304 353.093C429.721 347.434 432.242 335.798 430.52 330.528C428.798 325.258 426.44 321.828 425.327 317.774C424.216 313.721 424.794 306.168 422.556 302.686C421.243 300.644 419.107 299.207 417.065 297.966C415.385 296.946 411.714 295.604 410.001 294.631C408.149 293.579 407.347 292.554 406.245 293.794L408.221 296.235C411.307 300.504 410.447 301.13 410.373 303.401C410.296 305.772 411.087 308.28 411.521 310.639C409.326 307.872 408.428 305.455 406.032 305.88C403.788 306.278 403.35 306.187 399.917 309.406C396.484 312.623 395.63 313.86 395.779 314.878Z" fill="#455A64"/>
<path d="M425.304 353.093C429.721 347.434 432.242 335.798 430.52 330.528C429.898 328.623 429.192 326.964 428.492 325.422C428.564 325.778 428.672 326.141 428.72 326.446C428.826 327.127 428.917 327.811 428.982 328.497C429.235 331.137 429.226 334.015 428.107 336.476C427.111 338.665 424.816 344.16 421.854 344.281C420.179 344.35 418.763 342.712 418.118 340.84C417.845 340.049 417.395 337.916 417.395 337.916C417.395 337.916 413.028 338.858 409.704 341.054C405.411 343.891 405.567 344.52 405.567 344.52C405.747 345.488 405.941 347.134 405.706 348.285C405.472 349.437 404.818 351.3 404.108 352.035C403.765 352.391 403.394 352.671 403.016 352.911C403.192 356.963 404.254 360.152 408.224 362.916C410.971 364.643 416.658 364.17 425.304 353.093Z" fill="#37474F"/>
<path d="M402.155 329.817C403.271 335.27 403.367 339.888 403.252 343.866C404.868 348.366 406.284 348.233 406.477 345.902C406.671 343.558 403.563 333.89 401.248 325.894C401.601 327.22 401.894 328.549 402.155 329.817Z" fill="#37474F"/>
<path d="M412.857 301.634C413.116 299.442 412.429 297.188 411.136 295.204C410.712 295.004 410.317 294.81 410.002 294.63C408.15 293.578 407.348 292.553 406.247 293.792L408.223 296.234C411.309 300.503 410.449 301.127 410.375 303.4C410.298 305.77 411.089 308.277 411.522 310.636C413.313 318.268 414.949 320.816 415.794 328.025C416.639 335.234 415.195 340.079 416.213 340.486C417.231 340.894 419.289 340.076 419.663 334.298C420.037 328.52 417.486 318.814 415.686 314.214C413.887 309.614 412.491 304.717 412.857 301.634Z" fill="#37474F"/>
<path d="M417.911 338.421C417.814 338.52 417.688 338.591 417.543 338.622C412.479 339.665 409.782 340.936 406.013 345.371C405.746 345.664 405.303 345.711 404.999 345.455C404.697 345.197 404.659 344.744 404.917 344.442C408.899 339.755 411.869 338.32 417.254 337.214C417.642 337.134 418.023 337.384 418.103 337.774C418.151 338.016 418.072 338.257 417.911 338.421Z" fill="#EBEBEB"/>
<path d="M416.997 332.41C416.901 332.507 416.778 332.578 416.636 332.612C411.399 333.824 408.491 335.306 404.491 339.979C404.19 340.316 403.76 340.325 403.449 340.06C403.14 339.794 403.104 339.329 403.368 339.019C407.589 334.099 410.751 332.458 416.304 331.174C416.701 331.082 417.098 331.329 417.19 331.726C417.248 331.981 417.167 332.236 416.997 332.41Z" fill="#EBEBEB"/>
<path d="M417.124 325.791C417.02 325.897 416.885 325.977 416.727 326.013C410.951 327.351 407.562 329.142 403.153 334.292C402.876 334.627 402.347 334.672 402.004 334.381C401.664 334.088 401.623 333.576 401.916 333.233C406.559 327.821 410.238 325.846 416.36 324.428C416.798 324.327 417.235 324.601 417.336 325.038C417.402 325.318 417.313 325.598 417.124 325.791Z" fill="#EBEBEB"/>
<path d="M416.165 320.135C416.062 320.239 415.93 320.317 415.775 320.352C410.112 321.661 406.833 323.38 402.5 328.44C402.224 328.761 401.71 328.813 401.375 328.526C401.039 328.24 401.001 327.737 401.289 327.402C405.834 322.093 409.415 320.186 415.417 318.8C415.845 318.7 416.274 318.968 416.374 319.397C416.437 319.671 416.35 319.948 416.165 320.135Z" fill="#EBEBEB"/>
<path d="M414.089 314.628C413.986 314.732 413.853 314.81 413.699 314.846C408.036 316.158 404.76 317.871 400.424 322.934C400.142 323.262 399.634 323.308 399.299 323.021C398.963 322.735 398.925 322.231 399.213 321.897C403.766 316.583 407.337 314.681 413.34 313.291C413.769 313.193 414.198 313.46 414.298 313.889C414.36 314.164 414.273 314.441 414.089 314.628Z" fill="#EBEBEB"/>
<path d="M435.829 214.884C435.829 214.884 375.989 204.788 352.644 204.937C328.822 205.088 326.611 222.962 332.573 233.91C343.986 254.871 383.67 299.326 383.67 299.326C383.67 299.326 396.999 293.226 401.096 281.7L392.043 260.958L420.527 270.065L435.073 260.309L436.259 252.888L435.829 214.884Z" fill="#455A64"/>
<path d="M395.243 282.953L378.426 292.542L369.185 296.378L375.688 316.015L404.744 307.676L395.243 282.953Z" fill="#C8856A"/>
<path d="M333.713 300.07C326.966 301.497 322.635 303.351 319.069 306.676C315.502 310.001 313.959 313.718 315.956 318.81C317.954 323.902 322.141 330.189 328.26 330.856C334.379 331.521 338.362 330.639 344.497 328.54L333.713 300.07Z" fill="#263238"/>
<path d="M383.377 313.928C383.146 315.837 374.518 318.271 365.549 320.832C355.935 323.578 353.278 325.972 345.411 328.322C336.422 331.008 333.228 330.713 327.088 327.839C320.946 324.967 314.551 314.414 321.515 306.871C327.193 300.721 333.359 299.808 342.624 298.968C352.201 298.1 357.367 297.233 364.507 295.758C371.332 294.35 377.366 290.77 378.429 292.542C377.439 292.832 370.039 295.838 371.117 297.176C371.329 297.807 372.319 297.787 374.082 297.384C374.85 297.208 375.714 297.167 376.398 297.659C377.088 298.155 377.43 299.073 377.72 299.929C378.426 302.01 378.361 303.205 378.873 305.347C379.172 306.599 379.079 305.888 379.342 307.148C379.637 308.56 380.286 310.724 379.953 311.917C379.751 312.634 379.18 312.779 378.557 313.041C377.933 313.302 377.066 313.6 376.467 313.921C376.227 314.05 375.754 314.529 375.829 314.828C375.951 315.324 377.145 315.3 377.659 315.181C378.277 315.038 379.016 314.999 379.639 314.881C380.228 314.767 381.795 314.364 383.377 313.928Z" fill="#455A64"/>
<path d="M348.491 327.428C347.197 327.828 339.072 330.06 337.059 327.563C334.881 324.859 341.537 322.252 341.537 322.252C341.537 322.252 343.416 316.726 337.963 307.215C336.619 307.936 331.671 307.056 332.232 304.153C332.788 301.269 341.694 299.075 341.824 299.043C332.947 299.886 327.026 300.901 321.513 306.87C314.551 314.414 320.945 324.967 327.086 327.838C333.226 330.711 336.42 331.005 345.409 328.321C346.31 328.052 347.689 327.733 348.491 327.428Z" fill="#37474F"/>
<path d="M340.823 321.549C337.504 322.069 339.178 325.287 343.937 325.136C351.072 324.909 357.461 321.962 365.548 320.832C374.518 318.271 383.595 316.007 383.404 313.819C381.824 314.125 378.425 314.914 378.425 314.914C377.758 315.073 376.053 315.401 376.053 315.401C369.302 317.058 361.606 320.255 354.488 320.953C348.216 321.566 344.144 321.029 340.823 321.549Z" fill="#37474F"/>
<path d="M338.238 308.37C341.395 307.191 342.134 305.854 348.213 304.212C354.246 302.584 364.76 298.637 371.23 296.198C373.246 295.498 378.358 292.562 378.425 292.541C377.637 291.266 373.869 291.687 369.892 293.347C365.916 295.008 363.482 296.082 359.603 297.336C351.979 300.329 343.611 301.806 339.228 303.685C334.846 305.566 335.082 309.549 338.238 308.37Z" fill="#37474F"/>
<path d="M337.942 307.535C337.967 307.634 338.008 307.729 338.064 307.817C338.112 307.889 341.779 313.594 341.104 322.637C341.073 323.083 341.367 323.489 341.76 323.548C342.155 323.609 342.5 323.297 342.533 322.855C343.256 313.179 339.411 307.215 339.199 306.893C338.957 306.527 338.508 306.434 338.193 306.692C337.956 306.884 337.865 307.224 337.942 307.535Z" fill="#F0F0F0"/>
<path d="M344.207 304.403C344.23 304.492 344.265 304.578 344.314 304.661C344.364 304.743 348.663 312.164 348.212 322.207C348.199 322.651 348.497 323.048 348.894 323.096C349.29 323.142 349.627 322.817 349.646 322.372C350.118 311.748 345.698 304.144 345.48 303.784C345.247 303.407 344.8 303.299 344.479 303.54C344.226 303.73 344.126 304.079 344.207 304.403Z" fill="#F0F0F0"/>
<path d="M353.789 322.543C353.863 322.843 354.085 323.091 354.371 323.157C354.764 323.245 355.129 322.963 355.19 322.526C356.555 312.396 351.657 301.851 351.405 301.471C351.163 301.103 350.714 301.013 350.399 301.269C350.089 301.525 350.039 302.035 350.272 302.396C350.328 302.481 355.05 312.772 353.769 322.198C353.752 322.317 353.762 322.433 353.789 322.543Z" fill="#F0F0F0"/>
<path d="M359.503 320.118C359.576 320.412 359.792 320.656 360.073 320.726C360.466 320.823 360.835 320.549 360.9 320.112C362.585 308.945 356.822 300.36 356.56 300.011C356.297 299.66 355.845 299.602 355.548 299.88C355.251 300.159 355.223 300.677 355.484 301.017C355.544 301.094 361.051 309.365 359.487 319.759C359.467 319.883 359.475 320.003 359.503 320.118Z" fill="#F0F0F0"/>
<path d="M366.667 318.418C366.738 318.708 366.949 318.951 367.227 319.025C367.617 319.129 367.991 318.86 368.063 318.426C369.784 307.94 363.779 298.591 363.503 298.208C363.25 297.849 362.797 297.78 362.493 298.052C362.188 298.319 362.145 298.827 362.407 299.185C362.47 299.274 368.253 308.314 366.653 318.049C366.63 318.175 366.637 318.299 366.667 318.418Z" fill="#EBEBEB"/>
<path d="M435.62 214.821L516.83 230.896C516.83 230.896 525.047 255.433 513.661 274.377C503.882 290.645 487.462 296.326 475.191 296.638C462.3 296.964 446.556 295.314 446.556 295.314C446.556 295.314 438.472 300.122 430.639 302.128C422.806 304.136 388.43 313.621 388.43 313.621C388.43 313.621 380.259 304.697 383.237 288.658L407.087 269.03C412.909 264.24 418.605 259.299 424.246 254.297C428.092 250.886 430.329 249.396 433.215 248.399C430.694 223.473 431.481 222.854 435.62 214.821Z" fill="#455A64"/>
<g opacity="0.3">
<path d="M387.292 243.292C393.244 252.158 396.975 258.734 399.32 263.273L392.042 260.956C383.84 241.426 382.157 235.735 369.049 226.584C369.049 226.584 378.453 230.124 387.292 243.292Z" fill="black"/>
<path d="M454.852 285.34C454.852 285.34 449.005 291.856 432.168 296.579C422.706 299.232 393.54 306.542 384.844 307.456C386.49 311.487 388.43 313.622 388.43 313.622C388.43 313.622 422.805 304.137 430.638 302.13C432.335 301.695 434.039 301.126 435.675 300.506C436.398 300.232 437.113 299.948 437.801 299.66C439.595 298.906 441.242 298.126 442.611 297.439C443.979 296.751 445.072 296.156 445.757 295.773C446.099 295.582 446.34 295.443 446.462 295.371C446.523 295.336 446.555 295.317 446.555 295.317C454.352 290.107 454.852 285.34 454.852 285.34Z" fill="black"/>
<path d="M423.597 254.961C419.968 258.257 409.907 266.668 409.907 266.668L406.851 265.691C406.851 265.691 423.04 250.102 428.799 246.18C429.966 245.386 430.836 244.737 432.057 244.236C430.327 237.054 431.856 225.834 431.856 225.834C431.867 233.735 434.904 240.088 436.585 243.137C440.331 242.597 444.518 243.121 449.609 244.653C458.483 247.323 484.173 255.15 484.173 255.15C484.173 255.15 459.285 249.665 446.253 247.486C433.22 245.307 427.227 251.667 423.597 254.961Z" fill="black"/>
</g>
<path d="M444.493 124.053C429.827 125.15 425.455 134.036 424.714 142.159C423.863 151.495 423.908 173.938 423.908 173.938L404.047 192.433L418.113 208.643C418.113 208.643 433.753 199.097 439.923 194.815C447.475 189.576 446.882 186.257 446.85 173.49C446.82 160.743 445.747 131.267 444.493 124.053Z" fill="#C8856A"/>
<path d="M519.457 242.154C518.865 238.608 517.869 205.258 512.656 178.021C510.986 169.297 504.598 133.235 501.824 126.816L490.508 124.211C490.508 124.211 468.772 122.986 450.018 123.739L444.493 124.053C443.422 125.354 425.455 145.105 421.297 160.37C418.932 169.054 421.903 181.887 432.339 188.605C432.339 188.605 434.861 203.346 434.876 203.466C434.876 203.466 431.605 210.458 430.31 213.869C433.627 228.356 446.578 244.551 471.817 247.996C502.121 252.131 517.703 243.399 519.457 242.154Z" fill="#6863C7"/>
<path opacity="0.3" d="M519.457 242.154C518.865 238.608 517.869 205.258 512.656 178.021C510.986 169.297 504.598 133.235 501.824 126.816L490.508 124.211C490.508 124.211 468.772 122.986 450.018 123.739L444.493 124.053C443.422 125.354 425.455 145.105 421.297 160.37C418.932 169.054 421.903 181.887 432.339 188.605C432.339 188.605 434.861 203.346 434.876 203.466C434.876 203.466 431.605 210.458 430.31 213.869C433.627 228.356 446.578 244.551 471.817 247.996C502.121 252.131 517.703 243.399 519.457 242.154Z" fill="black"/>
<path opacity="0.3" d="M452.267 191.851C452.267 191.851 460.026 200.006 473.946 197.324C488.309 194.558 492.951 182.781 492.951 182.781C492.951 182.781 492.04 198.008 474.882 201.317C459.059 204.369 452.267 191.851 452.267 191.851Z" fill="black"/>
<path d="M421.37 61.0336C421.366 60.3456 421.438 59.6644 421.621 58.998C422.242 56.7478 423.535 54.6744 425.336 53.1796C428.058 50.92 431.577 50.085 434.884 49.0719C436.373 48.6159 438.387 48.2058 439.641 47.2385C440.645 46.4642 441.59 44.9816 442.232 43.9091C444.317 40.4206 449.04 37.8669 453.659 38.2581C460.951 38.8732 459.84 42.0731 466.088 43.0471C471.658 43.9159 475.245 43.8997 480.828 47.6405C484.718 50.2469 485.955 54.1631 490.916 55.0642C495.384 55.8763 499.771 59.199 500.169 63.7209C500.345 65.7188 499.767 67.8759 500.696 69.6539C501.175 70.5712 501.997 71.2512 502.737 71.9756C504.377 73.5809 505.711 75.5505 506.306 77.7669C506.901 79.9834 506.703 82.4575 505.507 84.4163C504.982 85.2769 504.28 86.023 503.799 86.9079C502.59 89.1325 502.937 91.8292 502.945 94.3613C502.953 96.892 502.331 99.8073 500.086 100.981C498.386 101.87 496.216 101.477 494.554 102.435C491.896 103.966 491.916 107.988 489.646 110.05C488.166 111.395 485.985 111.644 483.995 111.453C482.004 111.263 480.049 110.705 478.05 110.698C476.041 110.69 474.074 111.239 472.075 111.433C470.547 111.582 468.948 111.46 467.41 111.459C465.897 111.457 464.385 111.304 462.901 111.004C461.263 110.674 459.659 110.168 458.129 109.493C456.707 108.866 455.392 107.73 453.915 107.332C451.99 106.814 449.979 106.941 448.024 107.205C446.134 107.462 444.018 107.583 442.183 108.084C438.85 108.991 435.112 108.467 432.071 106.745C429.148 105.091 426.897 102.133 426.49 98.8023C426.254 96.8637 426.625 94.8577 426.133 92.9677C425.432 90.2778 422.84 88.6765 421.797 86.0823C420.863 83.7593 421.104 80.8495 422.149 78.6128C419.935 80.3989 418.603 83.2264 418.635 86.0688C417.275 84.1235 417.113 81.524 417.734 79.2333C418.355 76.9427 419.676 74.907 421.104 73.0103C421.637 72.302 422.198 71.5884 422.47 70.7453C422.85 69.5743 422.627 68.3035 422.403 67.0948C422.042 65.1414 421.382 63.0558 421.37 61.0336Z" fill="#263238"/>
<path d="M483.283 116.492C483.007 113.586 481.639 96.5521 481.639 96.5521C481.892 97.6191 487.052 100.343 491.089 94.1751C495.231 87.8441 494.281 81.8329 490.989 78.3848C487.349 74.5738 480.156 76.4867 478.215 83.6729C476.036 83.5664 473.26 85.9164 472.919 74.9812C472.56 72.298 469.501 70.2367 467.24 69.1251C465.092 68.0688 462.765 67.4428 460.458 66.8034C457.172 65.8942 453.873 64.9404 450.84 63.389C447.805 61.8376 442.994 58.8725 441.266 55.937C436.839 58.5663 434.6 62.1128 432.991 67.285C431.774 71.958 431.143 75.2712 432.819 81.8814C433.171 83.2723 431.408 86.3224 432.118 93.4655C433.674 109.142 438.442 113.175 443.456 115.719C446.442 117.235 452.029 117.413 456.15 116.611L456.566 120.391C456.723 121.883 456.123 123.361 454.385 123.497C452.288 123.662 451.994 123.666 451.994 123.666C454.413 131.81 481.389 130.79 490.511 124.211C490.511 124.211 489.103 123.909 486.877 123.051C484.651 122.193 483.66 120.453 483.283 116.492Z" fill="#C8856A"/>
<path d="M487.753 92.2999C488.004 93.7016 487.071 95.0412 485.669 95.2907C484.266 95.5416 482.926 94.6081 482.675 93.2078C482.424 91.8062 483.356 90.4666 484.759 90.2157C486.163 89.9661 487.503 90.8983 487.753 92.2999Z" fill="#6863C7"/>
<path d="M459.821 97.3159L452.024 100.887C452.98 103.125 455.5 104.139 457.652 103.154C459.807 102.168 460.777 99.5539 459.821 97.3159Z" fill="#AF6152"/>
<path d="M459.534 99.2519C457.257 99.4718 455.517 101.277 455.295 103.469C456.07 103.592 456.884 103.505 457.654 103.153C459.199 102.446 460.12 100.898 460.173 99.2546C459.961 99.2465 459.75 99.2316 459.534 99.2519Z" fill="#FFA8A7"/>
<path d="M435.639 72.0309L441.62 69.2654C440.913 67.5724 438.999 66.8196 437.348 67.5845C435.697 68.3481 434.931 70.3392 435.639 72.0309Z" fill="#263238"/>
<path d="M463.99 72.8134L457.875 70.1424C458.555 68.4129 460.476 67.6102 462.165 68.3482C463.852 69.0861 464.67 71.0853 463.99 72.8134Z" fill="#263238"/>
<path d="M454.823 82.9175C454.977 84.3057 456.186 85.3067 457.521 85.1542C458.858 85.0018 459.815 83.7539 459.661 82.3658C459.506 80.9777 458.299 79.9767 456.963 80.1291C455.626 80.2829 454.669 81.5307 454.823 82.9175Z" fill="#263238"/>
<path d="M436.113 82.6898C436.388 84.0577 437.679 84.9507 438.996 84.6823C440.313 84.4138 441.159 83.0877 440.884 81.7198C440.608 80.3506 439.318 79.4589 438 79.726C436.684 79.9944 435.839 81.3205 436.113 82.6898Z" fill="#263238"/>
<path d="M456.147 116.612C466.391 114.305 473.846 112.445 477.755 103.6C477.755 103.6 477.499 109.218 471.939 113.159C463.909 118.85 456.484 119.66 456.484 119.66L456.147 116.612Z" fill="#AF6152"/>
<path d="M438.187 90.3887C438.112 90.3954 438.04 90.4008 437.965 90.4062C433.264 90.7111 429.188 87.1362 428.883 82.4362C428.579 77.7362 432.163 73.6945 436.858 73.3613C439.137 73.2129 441.336 73.9603 443.052 75.4658C444.768 76.9713 445.793 79.0542 445.941 81.3313C446.24 85.9544 442.779 89.9718 438.187 90.3887ZM436.752 74.651C432.849 75.0044 429.906 78.4201 430.162 82.3525C430.421 86.347 433.883 89.3863 437.882 89.1273C441.863 88.8562 444.92 85.4067 444.661 81.4109C444.535 79.4751 443.665 77.7051 442.205 76.4249C440.748 75.1461 438.877 74.5107 436.939 74.6361C436.877 74.6415 436.815 74.6456 436.752 74.651Z" fill="#37474F"/>
<path d="M440.664 91.6204L449.788 94.68L449.959 76.8108L440.664 91.6204Z" fill="#AF6152"/>
<path d="M460.009 90.7096C459.935 90.7163 459.862 90.7217 459.787 90.7271C455.086 91.032 451.01 87.4571 450.705 82.7571C450.558 80.4813 451.306 78.2824 452.812 76.5691C454.319 74.8545 456.418 73.8252 458.682 73.6822C463.384 73.3773 467.458 76.9522 467.764 81.6522C468.062 86.2767 464.601 90.2941 460.009 90.7096ZM458.571 74.9732C456.71 75.1418 455.011 76.0039 453.774 77.4136C452.493 78.8705 451.857 80.7389 451.982 82.6748C452.241 86.6692 455.704 89.7086 459.702 89.4496C463.683 89.1609 466.741 85.7303 466.482 81.7332C466.222 77.7374 462.759 74.698 458.761 74.9584C458.698 74.9638 458.635 74.9678 458.571 74.9732Z" fill="#37474F"/>
<path d="M450.719 82.7207C450.314 81.4027 449.275 80.8928 448.438 80.8523C447.584 80.8118 446.462 81.2584 445.895 82.6303L444.711 82.1406C445.399 80.4786 446.851 79.4884 448.499 79.5734C450.097 79.649 451.45 80.7363 451.944 82.3443L450.719 82.7207Z" fill="#37474F"/>
<path d="M478.479 82.0341C478.432 82.0422 478.382 82.0462 478.332 82.0422L466.982 81.3933C466.628 81.3744 466.357 81.0723 466.377 80.7202C466.396 80.3681 466.697 80.0956 467.052 80.1158L478.402 80.7647C478.756 80.7836 479.027 81.0857 479.008 81.4378C478.989 81.74 478.765 81.9828 478.479 82.0341Z" fill="#37474F"/>
<path d="M481.011 80.1779L489.429 79.4427C489.429 79.4427 490.336 70.9317 490.494 65.8675C490.528 64.8894 490.445 62.8362 490.436 62.5502C490.282 57.2324 488.684 51.356 484.703 48.5636C481.815 46.5454 478.597 45.4365 475.425 44.8591C476.853 45.45 477.321 45.6159 479.641 47.5963C481.151 48.9993 482.099 50.6734 482.748 52.5553C483.725 55.3923 483.582 56.8708 483.601 59.0967C483.609 60.0181 483.592 61.1176 483.505 62.3276C483.026 69.4302 481.011 80.1779 481.011 80.1779Z" fill="#455A64"/>
<path d="M478.323 95.2155C475.999 89.9287 476.834 81.8399 480.186 77.1858C481.173 75.8152 482.284 74.8493 483.488 74.3124C484.372 73.9185 485.258 73.7822 486.111 73.882C486.608 73.9401 488.605 74.1532 489.114 74.2139C491.158 74.454 493.014 76.0499 494.201 78.7493C496.525 84.0361 495.69 92.1235 492.338 96.779C491.351 98.1496 490.24 99.1155 489.036 99.6524C488.146 100.049 487.254 100.184 486.396 100.081C485.906 100.022 483.932 99.8103 483.429 99.7536C481.377 99.5216 479.514 97.9243 478.323 95.2155Z" fill="#37474F"/>
<path d="M489.036 99.6529C490.24 99.116 491.351 98.1501 492.338 96.7795C495.69 92.1241 496.525 84.0367 494.201 78.7498C492.516 74.9173 489.483 73.3065 486.474 74.6475C485.27 75.183 484.159 76.1503 483.172 77.5209C479.82 82.175 478.985 90.2637 481.309 95.5506C482.994 99.3818 486.027 100.993 489.036 99.6529Z" fill="#263238"/>
<path d="M481.893 95.2868C479.648 90.1808 480.453 82.3969 483.69 77.9006C485.31 75.6518 487.231 74.6535 489.027 74.8559C489.276 74.8842 490.265 74.9935 490.512 75.0218C492.31 75.2201 493.984 76.619 495.107 79.1741C497.352 84.2801 496.548 92.064 493.311 96.5603C491.692 98.8078 489.771 99.8061 487.975 99.605C487.726 99.5767 486.73 99.4661 486.48 99.4378C484.686 99.2381 483.015 97.8392 481.893 95.2868Z" fill="#F0F0F0"/>
<path d="M485.182 78.0679C481.945 82.5628 481.14 90.3467 483.385 95.4541C485.63 100.56 490.074 101.055 493.311 96.5603C496.548 92.0654 497.352 84.2801 495.107 79.1741C492.864 74.068 488.42 73.5729 485.182 78.0679Z" fill="#E0E0E0"/>
<path d="M483.385 95.4539C481.14 90.3478 481.945 82.5639 485.182 78.0677C486.799 75.8229 488.716 74.8246 490.51 75.0229C491.012 75.0782 491.942 75.2455 492.444 75.3008C494.238 75.5018 495.909 76.9007 497.03 79.4504C499.275 84.5565 498.47 92.3403 495.233 96.8366C493.617 99.0814 491.7 100.08 489.906 99.8814C489.403 99.826 488.475 99.6588 487.975 99.6035C486.179 99.4038 484.508 98.0062 483.385 95.4539Z" fill="#6863C7"/>
<path opacity="0.15" d="M487.103 78.3447C483.866 82.841 483.062 90.6236 485.307 95.731C487.552 100.837 491.996 101.332 495.233 96.8372C498.47 92.3422 499.274 84.557 497.029 79.4509C494.786 74.3449 490.342 73.8498 487.103 78.3447Z" fill="white"/>
<path d="M490.135 83.0321C488.434 85.3929 488.011 89.4818 489.191 92.1637C490.37 94.8455 492.705 95.1059 494.404 92.7451C496.104 90.3843 496.528 86.2954 495.348 83.6135C494.17 80.9303 491.834 80.6713 490.135 83.0321Z" fill="#263238"/>
<path d="M488.956 86.5209L492.5 87.9131L493.166 81.462C492.224 81.3541 491.214 81.8789 490.365 83.0579C489.687 84.0036 489.209 85.2231 488.956 86.5209Z" fill="#455A64"/>
<path d="M489.421 92.1909C490.01 93.5305 490.89 94.2671 491.832 94.3683L492.5 87.9132L488.956 86.521C488.582 88.4636 488.713 90.5816 489.421 92.1909Z" fill="#37474F"/>
<path d="M491.832 94.368C492.777 94.4746 493.784 93.9512 494.636 92.7708C495.317 91.8251 495.79 90.6043 496.041 89.3052L492.499 87.9116L491.832 94.368Z" fill="#455A64"/>
<path d="M492.5 87.912L496.042 89.3055C496.417 87.3616 496.285 85.2477 495.579 83.641C494.989 82.2987 494.11 81.5648 493.166 81.4609L492.5 87.912Z" fill="#37474F"/>
<path d="M472.124 262.378L472.131 264.044C472.137 265.725 471.245 267.287 469.798 268.134L424.992 294.162C424.268 294.586 423.452 294.795 422.636 294.799C421.828 294.803 421.011 294.601 420.283 294.184L337.675 247.002C336.211 246.168 335.306 244.614 335.299 242.932L335.293 241.786L422.623 291.668L472.124 262.378Z" fill="#EBEBEB"/>
<path d="M335.293 241.785L384.029 213.385C384.896 212.88 385.966 212.875 386.837 213.373L471.811 261.915C472.228 262.154 472.23 262.754 471.816 262.996L422.624 291.669L335.293 241.785Z" fill="#FAFAFA"/>
<path d="M423.055 287.521L449.34 272.217L372.092 228.095L345.669 243.319L423.055 287.521Z" fill="#E0E0E0"/>
<path d="M435.822 245.213L435.337 245.495L422.454 253.002L399.426 239.849L398.946 239.579L412.314 231.789L435.822 245.213Z" fill="#E0E0E0"/>
<path d="M435.338 245.495L422.454 253.002L399.426 239.849L412.318 232.342L435.338 245.495Z" fill="#E6E6E6"/>
<path d="M422.623 291.666L422.636 294.797C421.828 294.802 421.011 294.599 420.283 294.182L337.675 247C336.211 246.167 335.306 244.612 335.299 242.93L335.293 241.785L422.623 291.666Z" fill="#EBEBEB"/>
<g opacity="0.5">
<path d="M422.623 291.666L422.636 294.797C421.828 294.802 421.011 294.599 420.283 294.182L337.675 247C336.211 246.167 335.306 244.612 335.299 242.93L335.293 241.785L422.623 291.666Z" fill="#E0E0E0"/>
</g>
<path d="M357.077 230.498C359.374 226.622 362.317 223.112 364.343 219.082C366.309 216.317 369.019 214.137 371.384 211.717C378.702 205.48 380.724 205.45 390.29 201.486C396.27 199.008 400.124 196.111 404.048 192.432L418.114 208.642C416.741 209.578 415.41 210.52 414.13 211.471C412.037 213.027 409.592 218.195 404.747 220.514C398.331 223.584 390.383 222.53 389.808 224.515C389.945 225.836 389.794 226.913 389.613 228.157C390.367 227.809 392.084 226.911 393.407 226.818C394.624 226.675 396.494 227.991 396.206 228.869C395.965 229.61 395.188 230.134 394.372 230.904C393.807 231.437 391.893 233.289 391.63 233.493C391.187 233.835 387.984 235.268 385.504 234.995C384.775 234.916 383.608 234.338 383.321 233.395C383.321 233.395 382.548 233.812 381.94 234.02C381.166 234.286 379.986 234.503 379.224 234.082C378.479 233.669 378.246 232.876 378.246 232.876C377.333 232.814 375.785 232.877 374.922 232.488C373.389 231.796 373.215 229.982 372.821 228.559C372.331 226.788 372.097 224.922 372.152 223.084C367.949 226.173 364.941 231.508 359.64 232.918C357.698 233.347 355.164 232.834 357.077 230.498Z" fill="#C8856A"/>
<path d="M535.293 200.964C531.503 179.715 527.921 160.488 523.477 145.052C521.023 136.526 514.316 127.706 501.824 126.816C490.358 135.046 495.433 159.773 497.078 165.765L506.344 203.003C506.344 203.003 499.277 209.295 488.823 217.017C479.991 223.542 474.265 228.728 463.808 230.001C453.352 231.275 449.121 230.943 443.675 233.331C440.778 234.602 434.167 237.55 431.909 238.701C429.652 239.852 425.62 243.949 421.883 246.713C418.367 249.531 422.777 251.072 425.509 250.264C429.071 249.21 431.274 247.637 433.715 246.253C436.022 244.944 438.346 244.448 440.759 243.535C440.203 245.319 439.293 249.893 439.289 251.762C439.285 253.265 438.962 255.089 440.274 256.186C441.014 256.804 442.549 257.164 443.425 257.473C443.425 257.473 443.436 258.315 444.054 258.922C444.684 259.541 445.901 259.65 446.732 259.602C447.383 259.564 448.256 259.367 448.256 259.367C448.279 260.368 449.266 261.253 449.958 261.529C452.315 262.472 455.845 261.944 456.373 261.729C456.688 261.601 459.069 260.309 459.768 259.94C460.779 259.407 461.682 259.107 462.122 258.447C462.643 257.664 461.172 255.863 459.94 255.672C458.619 255.401 456.69 255.812 455.857 255.948C456.374 254.779 456.817 253.764 457.043 252.433C458.148 250.647 466.183 252.433 473.308 251.174C478.69 250.225 482.564 245.098 484.98 244C500.458 236.972 509.443 233.967 525.064 224.482C539.333 215.82 537.259 211.991 535.293 200.964Z" fill="#C8856A"/>
<path d="M439.373 244.021C440.19 241.988 441.455 239.562 443 238.994C442.096 240.002 441.009 242.808 440.759 243.536C440.294 243.713 439.833 243.865 439.373 244.021Z" fill="#AF6152"/>
<path d="M443.426 257.474C443.123 256.016 443.19 254.516 443.274 253.044C443.366 251.567 443.576 250.103 443.831 248.649C444.115 247.212 444.389 245.726 445.018 244.343C445.642 242.999 446.399 241.61 447.665 240.788C447.135 241.298 446.777 241.939 446.458 242.588C446.126 243.227 445.848 243.896 445.628 244.58C445.173 245.936 444.932 247.361 444.667 248.803C444.393 250.236 444.164 251.678 443.921 253.117C443.706 254.56 443.475 256.001 443.426 257.474Z" fill="#AF6152"/>
<path d="M448.257 259.369C448.066 257.924 448.128 256.462 448.242 255.015C448.356 253.567 448.596 252.133 448.88 250.708C449.185 249.289 449.54 247.875 450.053 246.507C450.583 245.178 451.088 243.694 452.265 242.769C451.772 243.305 451.547 243.999 451.297 244.658C451.058 245.328 450.853 246.011 450.676 246.703C450.321 248.086 449.995 249.478 449.712 250.882C449.132 253.688 448.589 256.494 448.257 259.369Z" fill="#AF6152"/>
<path d="M459.939 255.674C459.286 255.719 458.686 255.753 458.14 255.935C457.562 256.074 457.15 256.368 456.422 256.603L456.717 256.128C456.761 256.486 456.69 256.724 456.602 256.992C456.516 257.249 456.356 257.469 456.193 257.666C455.862 258.06 455.433 258.328 454.973 258.467C455.271 258.09 455.525 257.719 455.706 257.348C455.791 257.159 455.838 256.963 455.882 256.78C455.92 256.607 455.919 256.38 455.905 256.282L455.858 255.95L456.2 255.807C456.647 255.62 457.22 255.491 457.895 255.446C458.584 255.408 459.38 255.33 459.939 255.674Z" fill="#AF6152"/>
<path d="M421.299 292.367C419.742 292.975 417.968 292.867 416.488 292.018L334.243 245.04C332.796 244.215 331.8 242.793 331.512 241.154L322.297 187.668C322.247 187.363 322.22 187.058 322.218 186.753C322.212 185.261 322.799 183.833 323.85 182.782L409.32 231.608C410.386 232.222 411.124 233.273 411.336 234.484L421.299 292.367Z" fill="#6863C7"/>
<g opacity="0.7">
<path d="M421.299 292.367C419.742 292.975 417.968 292.867 416.488 292.018L334.243 245.04C332.796 244.215 331.8 242.793 331.512 241.154L322.297 187.668C322.247 187.363 322.22 187.058 322.218 186.753C322.212 185.261 322.799 183.833 323.85 182.782L409.32 231.608C410.386 232.222 411.124 233.273 411.336 234.484L421.299 292.367Z" fill="white"/>
</g>
<path d="M422.623 291.67L422.064 291.993C421.817 292.135 421.562 292.259 421.298 292.367L411.337 234.483C411.126 233.273 410.387 232.221 409.321 231.607L323.852 182.781C324.18 182.45 324.566 182.159 324.985 181.91L410.629 230.826C411.695 231.44 412.434 232.491 412.646 233.702L422.623 291.67Z" fill="#FAFAFA"/>
<path d="M374.878 243.157C374.261 239.577 370.538 234.832 366.563 232.562C362.587 230.292 359.864 231.353 360.481 234.935C361.098 238.517 364.821 243.26 368.797 245.53C372.772 247.802 375.495 246.739 374.878 243.157Z" fill="#6863C7"/>
<path opacity="0.25" d="M177.128 345.731L262.912 395.225L344.716 348.041L258.933 298.547L177.128 345.731Z" fill="black"/>
<path d="M177.128 341.063L262.912 390.557L344.716 343.373L258.933 293.879L177.128 341.063Z" fill="#6863C7"/>
<path opacity="0.7" d="M177.128 341.063L262.912 390.557L344.716 343.373L258.933 293.879L177.128 341.063Z" fill="white"/>
<path opacity="0.2" d="M258.933 293.879L276.786 304.192L194.982 351.377L177.128 341.063L258.933 293.879Z" fill="#6863C7"/>
<path d="M220.179 352.219C219.885 352.105 219.629 352.037 219.308 351.974C218.982 351.909 218.67 351.92 218.354 351.955C218.2 351.972 217.989 352.007 217.819 352.067C217.753 352.033 217.696 351.991 217.623 351.97C217.468 351.924 217.316 351.902 217.151 351.895C217.065 351.887 216.981 351.889 216.9 351.901C216.778 351.906 216.666 351.925 216.564 351.958C216.282 351.982 215.931 352.299 215.794 352.447C215.661 352.593 215.549 352.752 215.46 352.911C215.284 353.228 215.214 353.572 215.225 353.919C215.234 354.225 215.317 354.569 215.595 354.858C215.905 355.18 216.373 355.434 216.97 355.561C217.997 355.781 219.152 355.616 219.913 355.284C220.678 354.95 221.318 354.444 221.428 353.852C221.538 353.25 221.171 352.606 220.179 352.219ZM218.948 353.166C218.949 353.168 218.948 353.168 218.949 353.168C218.964 353.207 219.057 353.28 219.085 353.317C219.102 353.339 219.116 353.361 219.13 353.382C219.133 353.386 219.131 353.385 219.134 353.389C219.13 353.379 219.126 353.37 219.13 353.369C219.13 353.369 219.135 353.389 219.137 353.394C219.179 353.462 219.156 353.431 219.138 353.398C219.149 353.44 219.179 353.551 219.18 353.562C219.184 353.587 219.184 353.613 219.187 353.637C219.187 353.64 219.187 353.638 219.187 353.64C219.176 353.691 219.166 353.741 219.149 353.791C219.139 353.815 219.13 353.839 219.119 353.864C219.11 353.884 219.1 353.903 219.089 353.923C219.079 353.939 219.067 353.954 219.054 353.97C219.037 353.993 219.018 354.015 218.999 354.036C218.956 354.085 218.907 354.134 218.856 354.179C218.853 354.181 218.851 354.183 218.848 354.185C218.86 354.177 218.864 354.174 218.883 354.162C218.855 354.179 218.832 354.201 218.805 354.22C218.733 354.271 218.658 354.32 218.577 354.366C218.562 354.374 218.547 354.383 218.529 354.391C218.463 354.418 218.396 354.445 218.324 354.469C218.294 354.479 218.263 354.488 218.234 354.498C218.188 354.507 218.151 354.515 218.104 354.522C218.126 354.522 218.119 354.519 218.146 354.519C218.132 354.519 218.119 354.521 218.104 354.522C218.073 354.526 218.037 354.53 218.014 354.534C218.011 354.534 218.012 354.534 218.011 354.534C218 354.534 218.011 354.534 217.996 354.533C217.987 354.533 217.977 354.531 217.968 354.53C217.969 354.53 217.976 354.53 217.977 354.53C217.973 354.53 217.968 354.53 217.962 354.53C217.95 354.529 217.937 354.529 217.925 354.527C217.911 354.525 217.9 354.522 217.887 354.519C217.865 354.511 217.848 354.503 217.826 354.496C217.811 354.486 217.784 354.469 217.756 354.452C217.75 354.444 217.709 354.41 217.699 354.398C217.664 354.357 217.638 354.316 217.609 354.275C217.599 354.263 217.606 354.274 217.602 354.267C217.586 354.235 217.572 354.202 217.56 354.17C217.533 354.094 217.514 354.02 217.502 353.945C217.479 353.817 217.436 353.647 217.488 353.526C217.491 353.52 217.494 353.513 217.494 353.509C217.502 353.47 217.511 353.431 217.524 353.393C217.542 353.328 217.565 353.265 217.592 353.203C217.677 353.008 217.822 352.829 217.949 352.647C217.952 352.65 217.956 352.651 217.96 352.652C218.101 352.744 218.265 352.806 218.451 352.865C218.459 352.868 218.469 352.871 218.478 352.874C218.502 352.883 218.527 352.894 218.551 352.905C218.586 352.919 218.62 352.936 218.652 352.952C218.662 352.957 218.671 352.961 218.68 352.967C218.724 352.988 218.859 353.091 218.872 353.1C218.896 353.124 218.922 353.145 218.948 353.166Z" fill="#37474F"/>
<path d="M218.85 354.188C218.751 354.252 218.81 354.221 218.85 354.188V354.188Z" fill="#37474F"/>
<path d="M217.978 354.533C218.018 354.532 218.062 354.528 218.105 354.525C218.039 354.527 217.994 354.529 217.978 354.533Z" fill="#37474F"/>
<path d="M219.137 353.396L219.134 353.39L219.138 353.4L219.137 353.396Z" fill="#37474F"/>
<path d="M238.326 362.689C238.032 362.575 237.776 362.507 237.455 362.444C237.128 362.379 236.817 362.39 236.501 362.425C236.345 362.442 236.136 362.477 235.966 362.537C235.9 362.503 235.843 362.461 235.77 362.44C235.615 362.394 235.463 362.372 235.298 362.365C235.212 362.357 235.128 362.359 235.047 362.371C234.925 362.375 234.813 362.395 234.711 362.427C234.429 362.452 234.078 362.769 233.941 362.917C233.808 363.063 233.696 363.222 233.607 363.381C233.432 363.698 233.361 364.042 233.372 364.389C233.381 364.695 233.463 365.039 233.742 365.328C234.052 365.65 234.52 365.904 235.117 366.031C236.144 366.251 237.299 366.086 238.06 365.754C238.825 365.42 239.465 364.914 239.574 364.322C239.687 363.72 239.319 363.076 238.326 362.689ZM237.095 363.638C237.096 363.639 237.095 363.639 237.096 363.639C237.111 363.678 237.204 363.751 237.232 363.789C237.249 363.81 237.263 363.832 237.277 363.853C237.28 363.857 237.278 363.856 237.281 363.86C237.277 363.851 237.273 363.841 237.277 363.84C237.277 363.84 237.282 363.86 237.284 363.866C237.326 363.933 237.303 363.902 237.285 363.87C237.296 363.911 237.326 364.022 237.327 364.033C237.331 364.058 237.331 364.084 237.334 364.108C237.334 364.111 237.334 364.11 237.334 364.111C237.323 364.162 237.313 364.212 237.296 364.262C237.286 364.286 237.277 364.311 237.266 364.335C237.257 364.355 237.247 364.374 237.236 364.394C237.226 364.411 237.213 364.427 237.201 364.442C237.184 364.465 237.165 364.486 237.146 364.508C237.103 364.556 237.054 364.605 237.003 364.651C237 364.652 236.997 364.655 236.995 364.657C237.007 364.649 237.011 364.647 237.03 364.634C237.002 364.652 236.979 364.674 236.952 364.692C236.88 364.744 236.804 364.792 236.722 364.838C236.707 364.846 236.692 364.856 236.675 364.864C236.609 364.891 236.541 364.918 236.47 364.942C236.44 364.952 236.409 364.961 236.379 364.97C236.333 364.98 236.297 364.988 236.25 364.995C236.271 364.993 236.264 364.992 236.291 364.992C236.278 364.992 236.265 364.993 236.25 364.995C236.219 364.999 236.182 365.003 236.159 365.007C236.157 365.007 236.158 365.007 236.157 365.007C236.146 365.007 236.157 365.007 236.142 365.005C236.132 365.005 236.123 365.004 236.113 365.004C236.115 365.004 236.121 365.004 236.123 365.003C236.119 365.003 236.113 365.003 236.109 365.003C236.097 365.001 236.084 365.001 236.071 365C236.058 364.997 236.047 364.995 236.034 364.993C236.012 364.985 235.995 364.977 235.973 364.969C235.958 364.958 235.931 364.941 235.903 364.925C235.897 364.916 235.855 364.883 235.846 364.871C235.811 364.83 235.785 364.788 235.756 364.748C235.746 364.736 235.753 364.746 235.749 364.74C235.733 364.707 235.719 364.675 235.707 364.643C235.68 364.567 235.661 364.493 235.649 364.417C235.626 364.289 235.583 364.119 235.635 363.999C235.638 363.994 235.641 363.986 235.641 363.982C235.649 363.942 235.658 363.903 235.671 363.866C235.689 363.801 235.712 363.737 235.739 363.675C235.824 363.481 235.969 363.302 236.096 363.12C236.098 363.121 236.103 363.124 236.107 363.125C236.248 363.217 236.412 363.279 236.598 363.338C236.607 363.341 236.615 363.343 236.625 363.346C236.649 363.356 236.674 363.366 236.698 363.377C236.733 363.392 236.767 363.408 236.799 363.424C236.809 363.428 236.818 363.434 236.827 363.439C236.871 363.461 237.006 363.563 237.018 363.573C237.045 363.594 237.07 363.616 237.095 363.638Z" fill="#37474F"/>
<path d="M254.823 372.208C254.529 372.093 254.274 372.026 253.953 371.962C253.626 371.897 253.314 371.908 252.998 371.943C252.844 371.961 252.634 371.996 252.464 372.055C252.398 372.022 252.341 371.98 252.268 371.958C252.113 371.912 251.96 371.891 251.796 371.884C251.709 371.876 251.625 371.877 251.544 371.889C251.423 371.895 251.311 371.914 251.208 371.947C250.926 371.972 250.575 372.289 250.439 372.437C250.305 372.583 250.193 372.742 250.104 372.901C249.929 373.218 249.858 373.562 249.869 373.909C249.879 374.215 249.961 374.559 250.239 374.848C250.55 375.17 251.018 375.424 251.615 375.551C252.642 375.771 253.796 375.606 254.557 375.274C255.323 374.94 255.963 374.434 256.072 373.841C256.183 373.237 255.816 372.595 254.823 372.208ZM253.592 373.155C253.594 373.156 253.592 373.156 253.594 373.156C253.608 373.195 253.702 373.268 253.73 373.306C253.746 373.327 253.761 373.349 253.775 373.371C253.777 373.375 253.776 373.373 253.779 373.377C253.775 373.368 253.77 373.358 253.775 373.357C253.775 373.357 253.78 373.377 253.781 373.383C253.823 373.45 253.8 373.419 253.783 373.387C253.793 373.429 253.823 373.539 253.824 373.55C253.829 373.576 253.829 373.601 253.831 373.626C253.831 373.628 253.831 373.627 253.831 373.628C253.82 373.68 253.811 373.729 253.793 373.779C253.784 373.804 253.775 373.828 253.764 373.852C253.754 373.872 253.745 373.891 253.734 373.912C253.723 373.928 253.711 373.943 253.699 373.959C253.681 373.982 253.662 374.003 253.644 374.025C253.6 374.073 253.552 374.122 253.5 374.168C253.498 374.171 253.495 374.172 253.492 374.175C253.505 374.167 253.509 374.164 253.527 374.152C253.499 374.169 253.476 374.191 253.449 374.21C253.378 374.261 253.302 374.31 253.221 374.355C253.206 374.364 253.19 374.373 253.174 374.381C253.108 374.408 253.04 374.435 252.969 374.459C252.939 374.469 252.908 374.478 252.878 374.488C252.832 374.497 252.796 374.505 252.749 374.512C252.77 374.511 252.763 374.509 252.79 374.509C252.777 374.509 252.763 374.511 252.749 374.512C252.718 374.516 252.681 374.52 252.658 374.524C252.655 374.524 252.657 374.524 252.655 374.524C252.645 374.524 252.655 374.524 252.641 374.523C252.631 374.523 252.622 374.521 252.612 374.52C252.614 374.52 252.62 374.52 252.622 374.52C252.618 374.52 252.612 374.52 252.607 374.52C252.595 374.519 252.581 374.519 252.569 374.517C252.556 374.515 252.545 374.512 252.531 374.509C252.51 374.501 252.492 374.493 252.471 374.486C252.456 374.475 252.429 374.458 252.4 374.442C252.395 374.434 252.353 374.4 252.344 374.388C252.309 374.347 252.283 374.305 252.253 374.265C252.244 374.253 252.25 374.264 252.246 374.257C252.23 374.225 252.217 374.192 252.205 374.16C252.178 374.084 252.159 374.01 252.147 373.935C252.124 373.806 252.08 373.636 252.133 373.516C252.136 373.511 252.138 373.503 252.138 373.499C252.147 373.46 252.156 373.421 252.168 373.383C252.187 373.318 252.21 373.255 252.237 373.193C252.322 372.998 252.466 372.819 252.593 372.637C252.596 372.639 252.6 372.641 252.603 372.642C252.745 372.734 252.908 372.796 253.094 372.855C253.104 372.858 253.112 372.861 253.121 372.863C253.145 372.873 253.17 372.884 253.194 372.894C253.229 372.909 253.263 372.925 253.295 372.942C253.305 372.947 253.314 372.951 253.324 372.956C253.367 372.978 253.502 373.081 253.514 373.09C253.541 373.112 253.567 373.133 253.592 373.155Z" fill="#37474F"/>
<path d="M236.997 364.657C236.898 364.722 236.956 364.69 236.997 364.657V364.657Z" fill="#37474F"/>
<path d="M236.124 365.003C236.165 365.001 236.208 364.997 236.251 364.995C236.185 364.996 236.14 365 236.124 365.003Z" fill="#37474F"/>
<path d="M237.284 363.867L237.281 363.86L237.286 363.872L237.284 363.867Z" fill="#37474F"/>
<path d="M252.007 335.824C251.527 336.036 251.008 336.027 250.409 335.884C249.834 335.746 248.785 335.942 249.167 336.383C249.536 336.808 249.472 337.411 248.658 337.539C248.024 337.639 247.486 337.354 247.204 337.014C247.127 336.85 247.048 336.685 246.945 336.522C246.664 336.075 245.111 336.127 245.192 336.6C245.228 336.806 245.343 337.001 245.491 337.186C245.856 337.968 245.887 338.754 245.524 339.492C245.344 339.857 243.334 342.246 242.017 341.287C241.624 341.001 240.397 340.951 240.441 341.388C240.456 341.537 240.494 342.981 239.631 342.568C239.203 342.363 238.086 342.375 238.176 342.777C238.221 342.978 238.273 343.179 238.273 343.379C238.29 343.48 238.277 343.579 238.237 343.674C238.269 343.947 237.972 344.036 237.347 343.944C237.033 343.437 235.491 343.623 235.528 344.09C235.578 344.717 235.507 345.326 235.506 345.946C235.425 345.896 235.339 345.85 235.262 345.799C234.715 345.444 234.275 345.067 233.859 344.666C233.379 344.202 231.818 344.337 231.987 344.882C232.388 346.186 232.84 347.545 232.507 348.811C232.342 349.44 231.986 350.248 230.862 350.468C229.248 350.784 228.389 349.502 227.939 348.81C227.2 347.678 226.686 346.515 226.382 345.353C226.108 344.307 225.606 342.78 226.444 341.821C227.432 342.741 228.159 343.744 228.63 344.754C228.717 344.941 229.565 345.158 229.54 344.89C229.41 343.498 228.616 342.212 227.277 340.953C226.95 340.647 226.243 340.549 225.792 340.731C223.473 341.666 224.002 343.893 224.407 345.473C224.645 346.401 225.034 347.332 225.552 348.243C226.034 349.089 226.56 350.094 227.718 350.765C229.695 351.907 232.611 351.439 233.728 350.343C234.743 349.347 234.76 348.059 234.498 346.785C235.139 347.067 235.838 347.207 236.55 347.027C237.666 346.743 237.698 345.794 237.575 344.96C237.951 344.98 238.326 344.972 238.658 344.907C239.804 344.681 240.044 344.047 240.003 343.39C240.382 343.396 240.759 343.361 241.099 343.258C241.83 343.035 242.071 342.618 242.137 342.163C243.645 342.354 245.275 341.717 246.089 341.091C247.123 340.295 247.594 339.31 247.536 338.28C248.035 338.389 248.564 338.443 249.086 338.404C250.499 338.298 251.322 337.601 251.23 336.821C252.078 336.836 252.869 336.7 253.558 336.399C254.444 336.008 252.704 335.517 252.007 335.824Z" fill="#37474F"/>
<path d="M280.904 318.437C281.21 320.237 279.298 321.924 275.795 321.332C275.418 321.267 274.806 321.354 274.739 321.594C274.526 322.364 274.864 323.357 274.154 324.015C273.855 324.291 273.43 324.388 273.008 324.33C273.022 323.601 272.823 322.849 272.53 322.111C272.443 321.895 272.09 321.754 271.733 321.715C268.703 321.393 269.529 323.488 271.1 324.536C270.999 325.404 270.501 326.189 269.203 326.664C268.067 327.079 266.27 327.156 265.633 327.829C265.263 327.785 264.884 327.778 264.544 327.853C263.26 328.134 263.484 328.947 263.365 329.638C262.982 329.623 262.596 329.658 262.268 329.762C261.378 330.042 261.388 330.493 261.339 330.959C260.727 330.705 259.965 330.568 259.197 330.577C257.165 330.601 256.251 331.786 256.741 332.88C256.879 333.186 258.007 333.391 257.972 333.003C257.925 332.468 257.978 331.852 258.647 331.489C259.33 331.118 260.657 331.265 260.889 331.938C261.019 332.316 262.13 332.53 262.474 332.216C262.733 331.979 262.871 331.76 262.93 331.467C262.959 331.322 262.951 331.171 262.967 331.024C262.955 331.132 263.215 330.307 263.325 330.399C263.701 330.719 264.697 330.68 264.901 330.377C265.061 330.14 265.129 329.917 265.151 329.656C265.161 329.522 265.161 329.389 265.151 329.252C265.08 329.001 265.177 328.796 265.444 328.637C265.771 329.057 267.235 329.058 267.176 328.579C267.067 327.704 269.24 327.724 270.232 327.426C271.185 327.138 271.926 326.649 272.387 326.092C272.628 325.799 272.789 325.491 272.891 325.174C273.836 325.282 274.773 325.101 275.418 324.737C276.556 324.095 276.461 323.095 276.505 322.173C280.304 322.376 283.716 320.878 282.558 318.445C282.364 318.034 280.83 317.997 280.904 318.437Z" fill="#37474F"/>
<path d="M287.974 317.042C287.694 317.203 288.404 317.523 288.642 317.385C288.921 317.224 288.211 316.904 287.974 317.042Z" fill="#37474F"/>
<path d="M277.035 341.874C276.153 342.694 275.212 343.488 274.194 344.248C273.697 344.619 273.208 345.013 272.636 345.345C271.996 345.716 271.149 345.687 270.486 345.989C270.101 346.165 269.981 346.432 269.811 346.691C269.611 346.993 269.608 347.116 268.97 347.185C268.727 347.21 268.528 347.169 268.288 347.221C267.921 347.302 267.725 347.441 267.594 347.657C267.477 347.85 267.508 349.397 266.545 348.825C266.287 348.671 265.683 348.557 265.425 348.713C264.928 349.015 264.766 349.346 264.623 349.765C264.549 349.983 264.564 350.313 264.353 350.493C263.792 350.971 263.123 350.657 262.639 350.224C262.324 349.943 261.235 349.856 261.185 350.229C261.105 350.83 261.065 351.434 260.931 352.028C260.838 352.44 260.689 353.57 259.811 353.668C259.465 353.707 259.113 353.645 258.801 353.539C258.883 353.429 258.976 353.324 259.047 353.212C259.473 352.536 259.753 351.708 259.067 350.959C258.585 350.433 257.567 350.109 256.804 350.511C255.573 351.159 255.866 352.666 257.066 353.613C256.98 353.711 256.895 353.806 256.819 353.888C256.588 354.146 255.858 355.331 255.359 355.392C255.06 355.429 254.51 355.159 254.057 355.178C253.747 355.19 253.527 355.26 253.463 355.435C253.436 355.51 253.428 355.586 253.407 355.662C252.77 355.329 252.054 355.076 251.332 355.269C250.7 355.438 250.473 355.953 250.38 356.479C249.943 356.265 249.483 356.064 248.968 355.886C248.458 355.709 247.747 355.836 247.699 356.157C247.64 356.56 247.644 356.966 247.62 357.371C247.433 357.13 247.248 356.888 247.024 356.654C246.299 355.891 245.275 354.956 243.756 354.683C242.247 354.41 241.438 355.032 241.046 355.743C240.495 356.739 240.792 357.82 241.725 358.832C241.88 358.999 242.728 359.144 242.545 358.87C242.061 358.146 241.842 357.373 242.027 356.654C242.113 356.32 242.267 355.916 242.585 355.648C243.296 355.048 244.291 355.518 244.887 356.023C246.563 357.445 247.19 359.156 247.822 360.736C247.986 361.147 249.541 361.174 249.476 360.738C249.291 359.49 249.28 358.258 249.387 357.034C249.766 357.24 250.112 357.468 250.432 357.721C250.865 358.063 251.993 358.001 252.03 357.598C252.058 357.284 252.104 356.973 252.193 356.667C252.219 356.581 252.325 356.397 252.401 356.233C252.682 356.427 253.142 356.632 253.451 356.799C253.914 357.05 254.805 356.983 254.871 356.636C254.908 356.444 254.929 356.253 254.96 356.061C255.091 356.102 255.22 356.149 255.351 356.165C255.881 356.235 256.325 356.125 256.646 355.924C257.228 355.559 257.582 354.948 257.983 354.507C258.069 354.411 258.153 354.316 258.239 354.221C258.422 354.281 258.597 354.348 258.798 354.38C262.072 354.932 262.783 352.65 262.779 351.082C263.574 351.371 264.423 351.53 265.208 351.212C266.153 350.827 265.962 350 266.397 349.407C267.235 349.602 268.167 349.587 268.619 349.135C269.09 348.666 268.335 347.987 269.386 347.718C269.913 347.581 270.297 347.735 270.694 347.391C270.879 347.231 270.943 347.032 271.07 346.854C271.348 346.463 271.799 346.416 272.454 346.255C273.221 346.068 273.725 345.77 274.256 345.412C275.729 344.419 277.053 343.355 278.272 342.246C278.616 341.93 277.339 341.593 277.035 341.874Z" fill="#37474F"/>
<path d="M302.876 327.446C300.892 329.319 297.767 330.392 295.055 331.86C293.726 332.579 292.873 333.686 291.268 334.191C290.042 334.577 289.605 335.061 289.496 335.85C287.81 335.939 287 336.686 286.542 337.588C285.437 337.087 284.578 336.379 283.073 336.794C281.535 337.219 280.669 338.682 280.825 339.668C280.862 339.898 281.746 340.156 281.874 339.893C282.231 339.158 282.482 338.011 283.629 337.553C284.606 337.163 285.856 338.177 286.869 338.462C287.145 338.539 287.762 338.529 287.842 338.336C288.134 337.631 288.537 336.414 290.227 336.508C290.555 336.527 291.022 336.487 291.033 336.255C291.068 335.448 291.427 335.057 292.618 334.711C293.285 334.519 293.694 334.226 294.119 333.882C295.099 333.089 296.183 332.409 297.474 331.783C299.917 330.598 302.946 329.543 304.305 327.79C304.619 327.388 303.207 327.134 302.876 327.446Z" fill="#37474F"/>
<path d="M291.339 353.165C289.754 353.927 288.362 354.844 286.92 355.694C285.8 356.355 284.728 357.034 283.863 357.812C282.969 356.849 282.042 355.893 281.088 354.944C280.789 354.647 279.389 354.599 279.686 355.012C280.345 355.928 280.753 356.856 280.769 357.803C280.776 358.22 280.714 358.63 280.583 359.029C280.518 359.227 280.44 359.424 280.338 359.616C280.315 359.659 279.593 360.706 279.238 360.251C279.029 359.983 278.226 359.91 277.969 360.11C277.833 360.216 277.697 360.321 277.562 360.428C277.126 360.307 276.625 360.276 276.206 360.381C275.73 360.501 275.538 360.744 275.468 361.039C275.426 361.219 275.514 361.433 275.552 361.614C275.58 361.696 275.608 361.778 275.638 361.861C275.944 362.354 275.557 362.557 274.478 362.466C274.211 362.287 273.272 362.163 273.246 362.474C273.204 362.98 273.157 363.879 272.609 364.34C272.127 364.077 271.499 363.479 271.267 363.299C271.009 363.099 269.85 362.863 269.886 363.26C269.998 364.495 269.607 365.649 268.664 366.677C268.45 366.91 269.505 367.212 269.733 367.003C270.569 366.234 271.087 365.402 271.27 364.489C271.826 364.866 272.476 365.159 273.201 365.075C274.272 364.951 274.516 363.904 274.593 363.172C275.178 363.299 275.803 363.319 276.332 363.161C276.793 363.024 277.036 362.793 277.104 362.487C277.135 362.348 277.088 362.186 277.055 362.043C277.027 361.919 276.987 361.795 276.938 361.672C276.762 361.397 276.831 361.169 277.144 360.991C277.363 361.26 278.17 361.331 278.427 361.127C278.548 361.03 278.67 360.934 278.791 360.838C279.14 360.955 279.542 361.012 279.939 360.995C281.009 360.947 281.432 360.355 281.713 359.84C282.12 359.088 282.266 358.279 282.166 357.459C282.537 357.851 282.913 358.241 283.266 358.639C283.482 358.883 284.349 359.01 284.564 358.77C286.453 356.666 290.027 355.377 292.551 353.58C292.959 353.294 291.7 352.991 291.339 353.165Z" fill="#37474F"/>
<path d="M264.074 361.001C263.94 360.64 262.584 360.522 262.569 360.911C262.569 360.918 262.57 360.926 262.57 360.932C262.534 360.954 262.473 360.959 262.461 360.996C262.233 361.746 262.287 362.518 262.433 363.296C262.329 363.705 262.192 364.109 261.99 364.498C261.417 365.597 260.494 366.616 259.231 367.464C258.844 367.723 257.488 368.745 256.762 368.178C256.459 367.942 256.378 367.49 256.311 367.226C256.234 366.923 256.214 366.623 256.235 366.326C256.307 365.326 256.921 364.456 257.898 363.721C258.565 364.228 259.008 364.801 259.248 365.415C259.283 365.504 259.745 365.732 259.764 365.568C259.868 364.698 259.29 363.842 258.276 363.104C258.068 362.953 257.501 362.833 257.256 362.96C255.972 363.62 255.17 364.534 254.865 365.553C254.61 366.404 254.49 368.109 256.103 368.732C258.049 369.485 259.717 368.502 260.74 367.787C261.721 367.1 262.46 366.304 263.035 365.461C263.199 365.916 263.372 366.369 263.53 366.818C263.926 367.953 264.322 369.087 264.721 370.222C264.914 370.774 265.108 371.325 265.301 371.877C265.478 372.384 265.536 373.002 265.934 373.485C266.052 373.834 267.484 373.98 267.483 373.561C267.481 372.954 267.078 372.275 266.845 371.663C266.658 371.166 266.47 370.671 266.282 370.176C265.883 369.122 265.482 368.069 265.081 367.015C264.698 366.009 264.223 364.961 263.904 363.918C264.263 362.978 264.428 361.952 264.074 361.001Z" fill="#37474F"/>
<path d="M313.038 341.092C310.919 341.948 309.112 343.114 307.219 344.122C305.342 345.12 303.39 346.085 301.6 347.135C300.848 347.576 300.148 348.053 299.667 348.617C299.442 348.883 299.327 349.22 299.03 349.459C298.622 349.787 298.026 349.752 297.368 349.796C296.045 349.885 295.283 350.465 295.908 351.264C296.025 351.415 296.707 351.581 296.63 351.326C296.537 351.013 296.65 350.689 297.061 350.502C297.688 350.213 298.145 350.425 298.805 350.396C299.476 350.368 299.928 350.136 300.257 349.831C300.774 349.354 301.016 348.797 301.594 348.334C302.312 347.759 303.23 347.284 304.127 346.807C305.801 345.916 307.475 345.026 309.149 344.137C310.751 343.284 312.602 342.489 313.976 341.512C314.303 341.276 313.366 340.96 313.038 341.092Z" fill="#37474F"/>
<path d="M315.586 339.673C315.202 339.895 316.279 340.252 316.627 340.053C317.012 339.831 315.935 339.472 315.586 339.673Z" fill="#37474F"/>
<path d="M207.335 308.473L205.601 309.47L199.407 306.532L199.368 306.505C197.517 305.443 197.74 303.777 197.95 302.164C198.161 300.655 198.344 299.225 196.978 298.439C193.081 296.196 185.114 297.429 180.598 300.039C176.071 302.649 173.931 307.24 177.816 309.482C179.195 310.282 181.662 310.165 184.274 310.059C187.07 309.929 189.957 309.81 191.808 310.873L191.886 310.926L196.926 314.48L195.26 315.438L190.102 311.805C189.012 311.214 186.795 311.307 184.458 311.411C181.57 311.542 178.289 311.686 176.151 310.453C173.854 309.115 172.961 307.121 173.669 304.827C174.312 302.741 176.229 300.642 178.933 299.081C181.637 297.52 185.272 296.405 188.907 296.038C192.884 295.632 196.336 296.143 198.645 297.48C200.771 298.699 200.522 300.601 200.299 302.267C200.129 303.618 199.957 304.89 200.994 305.52L207.335 308.473Z" fill="#E0E0E0"/>
<path d="M229.558 292.476L227.799 296.66L194.397 315.941V312.767L229.558 292.476Z" fill="#263238"/>
<path d="M229.556 292.482L194.399 312.767L208.204 331.573L218.4 325.689L219.071 326.591C219.071 326.591 221.014 328.18 222.246 327.469L223.125 326.962L232.292 321.672L233.17 321.165C234.403 320.453 233.543 318.239 233.543 318.239L232.879 317.332L243.364 311.283L229.556 292.482Z" fill="#37474F"/>
<path d="M239.551 315.658L236.652 317.329C235.22 318.155 233.058 318.183 232.087 316.922L209.622 291.996L209.598 291.962C208.496 290.466 209.256 288.487 209.989 286.576C210.676 284.785 211.327 283.094 210.51 281.986C208.19 278.834 201.4 279.395 196.879 282.004C192.358 284.613 189.036 289.885 191.356 293.039C192.172 294.146 194.18 294.304 196.308 294.47C198.581 294.648 200.931 294.833 202.033 296.328L202.079 296.396L218.693 324.652C219.606 325.947 218.704 327.687 217.272 328.513L214.374 330.184L213.38 328.835L216.278 327.164C216.905 326.802 217.348 326.047 217.002 325.574L216.956 325.506L200.345 297.26C199.681 296.41 197.881 296.27 195.977 296.12C193.628 295.935 190.964 295.727 189.691 293.999C188.316 292.132 188.31 289.631 189.669 286.957C190.912 284.514 193.177 282.217 195.885 280.655C198.592 279.093 201.88 278.186 204.908 278.164C208.219 278.143 210.8 279.157 212.175 281.026C213.446 282.754 212.586 284.996 211.828 286.974C211.212 288.576 210.63 290.091 211.241 290.973L233.702 315.893L233.726 315.926C234.073 316.397 235.031 316.344 235.659 315.983L238.557 314.311L239.551 315.658Z" fill="#EBEBEB"/>
<path d="M218.05 329.171C218.05 328.031 217.25 326.644 216.261 326.074C215.763 325.786 215.314 325.762 214.989 325.954L208.379 329.759L210.898 334.145L217.547 330.311C217.858 330.118 218.05 329.727 218.05 329.171Z" fill="#455A64"/>
<path d="M209.63 334.024C210.618 334.594 211.418 334.132 211.418 332.992C211.418 331.852 210.618 330.465 209.63 329.894C208.642 329.324 207.84 329.786 207.84 330.926C207.841 332.066 208.642 333.453 209.63 334.024Z" fill="#263238"/>
<path d="M209.759 332.568C210.085 332.755 210.349 332.603 210.349 332.228C210.349 331.852 210.086 331.395 209.759 331.207C209.434 331.019 209.169 331.172 209.169 331.547C209.169 331.922 209.434 332.379 209.759 332.568Z" fill="#E0E0E0"/>
<path d="M245.155 313.535C245.155 312.395 244.354 311.008 243.365 310.438C242.867 310.15 242.417 310.126 242.093 310.318L235.484 314.123L238.003 318.509L244.651 314.675C244.962 314.482 245.155 314.091 245.155 313.535Z" fill="#455A64"/>
<path d="M236.734 318.386C237.722 318.957 238.523 318.494 238.523 317.354C238.523 316.214 237.722 314.827 236.734 314.257C235.746 313.686 234.946 314.149 234.944 315.289C234.944 316.429 235.746 317.815 236.734 318.386Z" fill="#263238"/>
<path d="M236.864 316.93C237.19 317.118 237.454 316.965 237.454 316.59C237.454 316.213 237.191 315.757 236.864 315.569C236.539 315.382 236.274 315.534 236.274 315.909C236.274 316.285 236.538 316.742 236.864 316.93Z" fill="#E0E0E0"/>
<path d="M236.433 315.535L235.66 315.982C235.41 316.126 235.109 316.221 234.813 316.253L234.99 317.88C235.579 317.806 236.159 317.616 236.653 317.33L237.297 316.957L236.433 315.535Z" fill="#E0E0E0"/>
<path d="M232.562 320.671C232.562 321.225 232.368 321.622 232.06 321.807L222.538 327.3C222.855 327.123 223.242 326.316 223.302 325.747C223.37 325.087 223.404 324.632 223.36 324.066C223.303 323.336 223.68 322.639 224.314 322.273L230.39 318.778C230.819 318.531 231.366 318.591 231.718 318.939C232.215 319.434 232.562 320.068 232.562 320.671Z" fill="#455A64"/>
<path opacity="0.15" d="M24.978 250.461V350.847L108.201 302.829V202.444L24.978 250.461Z" fill="black"/>
<path d="M128.995 297.249C128.995 297.249 124.94 304.118 110.418 312.497C102.259 317.205 37.1219 354.786 37.1219 354.786L28.3286 267.533L111.539 219.509L117.021 278.944C117.771 287.189 120.974 295.943 128.995 297.249Z" fill="#6863C7"/>
<path opacity="0.3" d="M128.995 297.249C128.995 297.249 124.94 304.118 110.418 312.497C102.259 317.205 37.1219 354.786 37.1219 354.786L28.3286 267.533L111.539 219.509L117.021 278.944C117.771 287.189 120.974 295.943 128.995 297.249Z" fill="white"/>
<path d="M111.544 219.517L28.3295 267.53L28.3228 252.121L111.544 204.104V219.517Z" fill="#6863C7"/>
<path d="M103.009 260.079C101.824 261.314 99.6059 262.896 98.1386 261.16C98.1102 261.126 98.0954 261.088 98.0697 261.053C99.0376 259.196 99.5087 257.182 99.0093 255.294C98.8864 254.832 98.063 253.947 97.5433 254.482C95.9747 256.097 95.4293 258.392 96.1137 260.434C95.1958 261.93 93.9687 263.277 92.928 264.209C91.9331 265.098 90.4414 266.339 89.0078 266.271C87.1625 266.185 87.3839 263.368 87.4271 262.085C87.446 261.515 86.2797 260.286 85.8747 261.161C84.8839 263.305 83.3922 265.312 81.9681 267.179C81.1311 268.277 80.2523 269.411 79.194 270.306C78.8727 270.577 78.538 270.859 78.1479 271.025C78.1479 271.025 78.1276 271.029 78.1101 271.033C78.0898 270.94 78.0372 270.792 78.025 270.59C77.9818 269.842 76.8749 268.822 76.4119 269.841C75.4656 271.918 73.9469 276.717 71.2998 277.281C70.479 277.456 69.8 276.788 68.9685 276.794C68.2801 276.798 67.7293 277.07 67.2487 277.529C66.1715 278.56 65.5101 280.089 64.6529 281.295C64.3181 281.766 63.7079 282.837 63.0978 283.018C62.2514 283.269 62.2082 281.689 62.0772 280.989C61.9828 280.481 61.3105 279.747 60.7503 280.135C59.5367 280.977 58.8429 282.178 58.2921 283.484C57.9411 282.809 57.7819 282.059 57.6982 281.25C57.6455 280.746 56.7357 279.841 56.3037 280.506C54.9039 282.663 53.1436 284.655 51.2713 286.412C50.0321 287.576 46.4143 290.985 44.6567 289.046C43.9669 288.285 43.7456 287.266 43.7834 286.169C45.4478 285.225 46.8098 283.563 47.8088 281.989C49.5947 279.176 50.9338 275.752 51.2213 272.42C51.2537 272.038 50.9041 271.487 50.4816 271.496C48.0882 271.547 46.417 274.801 45.464 276.608C44.0614 279.264 42.6791 282.427 42.4712 285.465C42.4658 285.552 42.4712 285.646 42.4685 285.734C41.7167 286.026 40.9013 286.157 40.005 286.025C39.6513 285.973 39.6526 286.779 40.009 286.849C40.8959 287.023 41.7301 286.957 42.5117 286.724C42.7048 288.497 43.5255 290.442 45.1845 291.065C47.4443 291.915 49.9308 289.952 51.5304 288.592C53.4041 287 55.1509 285.151 56.6358 283.157C56.9476 284.078 57.4187 284.923 58.1882 285.643C58.5391 285.973 59.1412 286.114 59.3531 285.554C59.7635 284.471 60.1941 283.417 60.9244 282.568C61.3699 283.945 62.1825 285.316 63.6958 284.873C65.4412 284.362 66.5954 281.791 67.5025 280.41C67.9682 279.702 68.496 278.552 69.499 278.589C70.6707 278.634 71.1769 279.439 72.454 278.896C74.9013 277.853 76.1986 274.983 77.2677 272.476C77.508 272.693 77.8036 272.849 78.1829 272.894C79.4019 273.037 80.5291 271.792 81.2796 271.01C82.9927 269.228 84.676 267.11 86.0151 264.898C86.2932 266.038 86.8385 267.069 87.8766 267.678C89.4992 268.632 91.4107 267.812 92.8281 266.868C94.3656 265.844 96.0165 264.248 97.2571 262.406C99.4574 264.855 102.438 263.614 104.356 261.409C104.945 260.731 103.71 259.351 103.009 260.079ZM45.5382 280.095C46.1565 278.596 46.8679 277.113 47.7372 275.743C48.2272 274.97 48.9791 273.78 49.9214 273.254C49.5245 275.969 48.4054 278.684 47.0812 281.018C46.2888 282.414 45.2399 283.892 43.9278 284.892C44.2545 283.118 45.0401 281.301 45.5382 280.095Z" fill="#FAFAFA"/>
<path d="M107.203 300.592C99.4413 304.974 90.1351 306.544 81.3094 306.57C72.5647 306.595 62.4688 305.333 55.5438 299.518C55.1334 299.174 55.0821 297.92 55.8745 298.296C63.974 302.134 72.4284 304.02 81.4093 303.889C88.58 303.784 96.1354 302.691 102.785 299.754C102.21 299.675 101.636 299.594 101.064 299.497C99.5817 299.247 98.136 298.926 96.7064 298.461C96.0706 298.254 95.4348 298.036 94.822 297.769C94.1052 297.456 93.5045 296.959 92.8862 296.488C92.6419 296.302 92.4326 295.894 92.5568 295.59C92.7283 295.173 92.9861 295.444 93.279 295.408C94.0012 295.318 94.7896 295.597 95.4767 295.79C96.1098 295.968 96.7523 296.108 97.3976 296.236C98.7556 296.506 100.115 296.766 101.486 296.958C104.274 297.349 107.086 297.512 109.894 297.693C110.874 297.757 111.258 299.037 110.847 299.817C109.468 302.426 107.456 304.554 105.204 306.433C104.138 307.324 103.02 308.152 101.89 308.962C100.791 309.748 99.71 310.599 98.5099 311.224C97.2626 311.873 96.7415 309.613 97.4961 308.905C99.363 307.15 101.706 305.88 103.704 304.27C105.16 303.096 106.518 301.79 107.647 300.306C107.607 300.302 107.568 300.298 107.529 300.294C107.44 300.409 107.34 300.517 107.203 300.592Z" fill="#FAFAFA"/>
</svg>
